<svg width="241" height="241" viewBox="0 0 241 241" fill="none" xmlns="http://www.w3.org/2000/svg">
<path d="M6.20314 232.642H240.59" stroke="#141A16" stroke-width="0.203962" stroke-linecap="round" stroke-linejoin="round"/>
<path d="M188.99 29.7637H218.178C218.178 29.7637 220.983 21.362 215.94 18.2827C210.898 15.2035 210.898 19.4043 206.978 17.7219C203.738 16.3355 203.13 13.6976 202.227 10.9039C202.123 10.5872 202.014 10.2652 201.899 9.94328C201.588 9.076 201.186 8.24402 200.7 7.46118" stroke="#B2B2B2" stroke-width="0.203962" stroke-linecap="round" stroke-linejoin="round"/>
<path d="M197.262 3.82104C189.946 -1.51184 177.852 0.47696 177.852 11.8385C177.852 14.6426 171.128 11.8385 168.609 15.4734C166.091 19.1083 168.89 21.3567 165.53 22.4783C162.17 23.5999 161.895 20.7959 157.684 21.0763C153.473 21.3567 154.049 25.2772 152.642 26.3988C151.234 27.5204 151.245 26.9596 148.16 27.24C145.076 27.5204 144.526 29.7585 144.526 29.7585H183.829" stroke="#B2B2B2" stroke-width="0.203962" stroke-linecap="round" stroke-linejoin="round"/>
<path d="M204.771 26.7C204.771 26.7 206.298 21.985 202.554 18.5163C198.81 15.0476 194.92 16.9897 193.814 18.5163C192.708 20.043 192.703 22.9561 190.901 23.2313C189.099 23.5065 189.51 20.2092 185.641 21.014C181.773 21.8189 183.284 25.729 181.487 26.5598C179.69 27.3906 179.685 24.3425 177.187 25.3136C174.69 26.2846 174.83 28.0864 174.83 28.0864" stroke="#B2B2B2" stroke-width="0.203962" stroke-linecap="round" stroke-linejoin="round"/>
<path d="M184.847 17.2752C183.825 16.5477 182.628 16.1068 181.379 15.9981C180.13 15.8895 178.875 16.1171 177.743 16.6573C173.724 18.5111 175.578 22.3692 173.724 23.2987C171.87 24.2282 170.946 23.1481 168.63 24.2282C166.314 25.3083 166.465 26.8505 166.465 26.8505" stroke="#B2B2B2" stroke-width="0.203962" stroke-linecap="round" stroke-linejoin="round"/>
<path d="M19.9636 44.3136C19.4984 44.056 18.9666 43.9438 18.437 43.9916C16.8065 44.1007 17.0246 45.6273 16.4794 46.0687C15.9341 46.5101 15.9601 46.2868 14.7346 46.3958C14.4262 46.3912 14.124 46.4827 13.87 46.6576C13.6159 46.8326 13.4227 47.0823 13.317 47.3721H41.9858C41.9858 47.3721 42.692 45.2586 41.9442 43.8047" stroke="#B2B2B2" stroke-width="0.203962" stroke-linecap="round" stroke-linejoin="round"/>
<path d="M41.1134 42.9011C39.1506 41.7068 39.1506 43.3373 37.6291 42.683C36.3673 42.1638 36.1336 41.1252 35.7805 40.0348C35.739 39.9101 35.6975 39.7855 35.6507 39.6609C33.9994 35.0602 26.3039 34.7434 26.3039 40.3983C26.3039 41.4887 23.7076 40.3983 22.7106 41.8159C21.7136 43.2335 22.8196 44.1006 21.5111 44.5368" stroke="#B2B2B2" stroke-width="0.203962" stroke-linecap="round" stroke-linejoin="round"/>
<path d="M36.7672 46.1724C36.9267 45.6136 36.9307 45.0219 36.7788 44.461C36.6269 43.9001 36.3249 43.3912 35.9052 42.9893C34.4512 41.6392 32.9401 42.3973 32.5092 42.9893C32.0782 43.5813 32.0782 44.7133 31.372 44.8223C30.6658 44.9314 30.8527 43.6384 29.326 43.9603C27.7994 44.2823 28.4069 45.7934 27.7059 46.1205C27.0049 46.4476 27.0049 45.2533 26.0339 45.6324C25.0629 46.0114 25.1148 46.7125 25.1148 46.7125" stroke="#B2B2B2" stroke-width="0.203962" stroke-linecap="round" stroke-linejoin="round"/>
<path d="M29.0197 42.5377C28.6224 42.2549 28.1568 42.0837 27.671 42.0416C27.1852 41.9996 26.697 42.0884 26.2572 42.2988C24.6994 43.0206 25.416 44.5213 24.6994 44.8952C23.9828 45.269 23.6193 44.8381 22.721 45.2587C21.8226 45.6793 21.8797 46.2972 21.8797 46.2972" stroke="#B2B2B2" stroke-width="0.203962" stroke-linecap="round" stroke-linejoin="round"/>
<path d="M106.546 15.2865C106.086 15.0319 105.56 14.9199 105.035 14.9645C103.405 15.0736 103.623 16.6002 103.078 17.0416C102.532 17.483 102.532 17.2597 101.333 17.3635C101.024 17.3593 100.721 17.4515 100.467 17.6275C100.213 17.8034 100.02 18.0542 99.9153 18.345H128.568C128.568 18.345 129.269 16.2315 128.527 14.7776" stroke="#B2B2B2" stroke-width="0.203962" stroke-linecap="round" stroke-linejoin="round"/>
<path d="M127.696 13.874C125.733 12.6745 125.733 14.3102 124.207 13.6559C122.95 13.1366 122.711 12.0981 122.363 11.0076C122.322 10.883 122.28 10.7584 122.233 10.6337C120.577 6.03304 112.887 5.71109 112.887 11.3711C112.887 12.4564 110.29 11.3711 109.288 12.7835C108.286 14.1959 109.397 15.0735 108.094 15.5097" stroke="#B2B2B2" stroke-width="0.203962" stroke-linecap="round" stroke-linejoin="round"/>
<path d="M123.329 17.1506C123.489 16.5952 123.495 16.0067 123.347 15.4479C123.199 14.8892 122.902 14.3811 122.488 13.9779C121.034 12.6278 119.523 13.3808 119.092 13.9779C118.661 14.5751 118.656 15.7019 117.955 15.8109C117.254 15.92 117.435 14.6218 115.909 14.949C114.382 15.2761 114.99 16.782 114.289 17.1039C113.588 17.4259 113.588 16.2419 112.617 16.621C111.646 17.0001 111.697 17.7011 111.697 17.7011" stroke="#B2B2B2" stroke-width="0.203962" stroke-linecap="round" stroke-linejoin="round"/>
<path d="M115.602 13.4847C115.205 13.202 114.739 13.0307 114.254 12.9887C113.768 12.9467 113.28 13.0355 112.84 13.2459C111.282 13.9624 111.999 15.4683 111.282 15.8422C110.565 16.2161 110.202 15.7799 109.298 16.2005C108.395 16.6211 108.457 17.239 108.457 17.239" stroke="#B2B2B2" stroke-width="0.203962" stroke-linecap="round" stroke-linejoin="round"/>
<path d="M146.312 33.7463H115.545V200.021H146.312V33.7463Z" fill="#141A16" stroke="#141A16" stroke-width="0.203962" stroke-linecap="round" stroke-linejoin="round"/>
<path d="M164.761 33.7463H138.788V200.021H164.761V33.7463Z" fill="white" stroke="#141A16" stroke-width="0.203962" stroke-linecap="round" stroke-linejoin="round"/>
<path d="M163.546 35.5327H139.759V43.7579H163.546V35.5327Z" fill="white" stroke="#141A16" stroke-width="0.203962" stroke-linecap="round" stroke-linejoin="round"/>
<path d="M142.978 36.6802V42.6569" stroke="#141A16" stroke-width="0.203962" stroke-linecap="round" stroke-linejoin="round"/>
<path d="M146.509 36.6802V42.6569" stroke="#141A16" stroke-width="0.203962" stroke-linecap="round" stroke-linejoin="round"/>
<path d="M150.035 36.6802V42.6569" stroke="#141A16" stroke-width="0.203962" stroke-linecap="round" stroke-linejoin="round"/>
<path d="M153.566 36.6802V42.6569" stroke="#141A16" stroke-width="0.203962" stroke-linecap="round" stroke-linejoin="round"/>
<path d="M157.097 36.6802V42.6569" stroke="#141A16" stroke-width="0.203962" stroke-linecap="round" stroke-linejoin="round"/>
<path d="M160.623 36.6802V42.6569" stroke="#141A16" stroke-width="0.203962" stroke-linecap="round" stroke-linejoin="round"/>
<path d="M137.318 35.5327H116.926V43.7579H137.318V35.5327Z" fill="white" stroke="#141A16" stroke-width="0.203962" stroke-linecap="round" stroke-linejoin="round"/>
<path d="M119.684 36.6802V42.6569" stroke="#141A16" stroke-width="0.203962" stroke-linecap="round" stroke-linejoin="round"/>
<path d="M122.711 36.6802V42.6569" stroke="#141A16" stroke-width="0.203962" stroke-linecap="round" stroke-linejoin="round"/>
<path d="M125.733 36.6802V42.6569" stroke="#141A16" stroke-width="0.203962" stroke-linecap="round" stroke-linejoin="round"/>
<path d="M128.761 36.6802V42.6569" stroke="#141A16" stroke-width="0.203962" stroke-linecap="round" stroke-linejoin="round"/>
<path d="M131.788 36.6802V42.6569" stroke="#141A16" stroke-width="0.203962" stroke-linecap="round" stroke-linejoin="round"/>
<path d="M134.81 36.6802V42.6569" stroke="#141A16" stroke-width="0.203962" stroke-linecap="round" stroke-linejoin="round"/>
<path d="M108.104 55.5557H51.9661V200.016H108.104V55.5557Z" fill="white" stroke="#141A16" stroke-width="0.203962" stroke-linecap="round" stroke-linejoin="round"/>
<path d="M76.2471 61.0808H55.4037V194.501H76.2471V61.0808Z" fill="#141A16" stroke="#141A16" stroke-width="0.203962" stroke-linecap="round" stroke-linejoin="round"/>
<path d="M135.283 55.5557H79.1446V200.016H135.283V55.5557Z" fill="white" stroke="#141A16" stroke-width="0.203962" stroke-linecap="round" stroke-linejoin="round"/>
<path d="M130.656 61.0808H83.7661V194.501H130.656V61.0808Z" fill="white" stroke="#141A16" stroke-width="0.203962" stroke-linecap="round" stroke-linejoin="round"/>
<path d="M95.543 66.4656H85.9366V71.4921H95.543V66.4656Z" fill="white" stroke="#141A16" stroke-width="0.203962" stroke-linecap="round" stroke-linejoin="round"/>
<path d="M106.526 66.4656H96.9191V71.4921H106.526V66.4656Z" fill="white" stroke="#141A16" stroke-width="0.203962" stroke-linecap="round" stroke-linejoin="round"/>
<path d="M117.503 66.4656H107.896V71.4921H117.503V66.4656Z" fill="white" stroke="#141A16" stroke-width="0.203962" stroke-linecap="round" stroke-linejoin="round"/>
<path d="M128.485 66.4656H118.879V71.4921H128.485V66.4656Z" fill="white" stroke="#141A16" stroke-width="0.203962" stroke-linecap="round" stroke-linejoin="round"/>
<path d="M95.543 75.4021H85.9366V80.4286H95.543V75.4021Z" fill="white" stroke="#141A16" stroke-width="0.203962" stroke-linecap="round" stroke-linejoin="round"/>
<path d="M106.526 75.4021H96.9191V80.4286H106.526V75.4021Z" fill="white" stroke="#141A16" stroke-width="0.203962" stroke-linecap="round" stroke-linejoin="round"/>
<path d="M117.503 75.4021H107.896V80.4286H117.503V75.4021Z" fill="white" stroke="#141A16" stroke-width="0.203962" stroke-linecap="round" stroke-linejoin="round"/>
<path d="M128.485 75.4021H118.879V80.4286H128.485V75.4021Z" fill="white" stroke="#141A16" stroke-width="0.203962" stroke-linecap="round" stroke-linejoin="round"/>
<path d="M95.543 84.3438H85.9366V89.3703H95.543V84.3438Z" fill="white" stroke="#141A16" stroke-width="0.203962" stroke-linecap="round" stroke-linejoin="round"/>
<path d="M106.526 84.3438H96.9191V89.3703H106.526V84.3438Z" fill="white" stroke="#141A16" stroke-width="0.203962" stroke-linecap="round" stroke-linejoin="round"/>
<path d="M117.503 84.3438H107.896V89.3703H117.503V84.3438Z" fill="white" stroke="#141A16" stroke-width="0.203962" stroke-linecap="round" stroke-linejoin="round"/>
<path d="M128.485 84.3438H118.879V89.3703H128.485V84.3438Z" fill="white" stroke="#141A16" stroke-width="0.203962" stroke-linecap="round" stroke-linejoin="round"/>
<path d="M95.543 93.2805H85.9366V98.307H95.543V93.2805Z" fill="white" stroke="#141A16" stroke-width="0.203962" stroke-linecap="round" stroke-linejoin="round"/>
<path d="M106.526 93.2805H96.9191V98.307H106.526V93.2805Z" fill="white" stroke="#141A16" stroke-width="0.203962" stroke-linecap="round" stroke-linejoin="round"/>
<path d="M117.503 93.2805H107.896V98.307H117.503V93.2805Z" fill="white" stroke="#141A16" stroke-width="0.203962" stroke-linecap="round" stroke-linejoin="round"/>
<path d="M128.485 93.2805H118.879V98.307H128.485V93.2805Z" fill="white" stroke="#141A16" stroke-width="0.203962" stroke-linecap="round" stroke-linejoin="round"/>
<path d="M95.543 102.222H85.9366V107.249H95.543V102.222Z" fill="white" stroke="#141A16" stroke-width="0.203962" stroke-linecap="round" stroke-linejoin="round"/>
<path d="M106.526 102.222H96.9191V107.249H106.526V102.222Z" fill="white" stroke="#141A16" stroke-width="0.203962" stroke-linecap="round" stroke-linejoin="round"/>
<path d="M117.503 102.222H107.896V107.249H117.503V102.222Z" fill="white" stroke="#141A16" stroke-width="0.203962" stroke-linecap="round" stroke-linejoin="round"/>
<path d="M128.485 102.222H118.879V107.249H128.485V102.222Z" fill="white" stroke="#141A16" stroke-width="0.203962" stroke-linecap="round" stroke-linejoin="round"/>
<path d="M95.543 111.164H85.9366V116.191H95.543V111.164Z" fill="white" stroke="#141A16" stroke-width="0.203962" stroke-linecap="round" stroke-linejoin="round"/>
<path d="M106.526 111.164H96.9191V116.191H106.526V111.164Z" fill="white" stroke="#141A16" stroke-width="0.203962" stroke-linecap="round" stroke-linejoin="round"/>
<path d="M117.503 111.164H107.896V116.191H117.503V111.164Z" fill="white" stroke="#141A16" stroke-width="0.203962" stroke-linecap="round" stroke-linejoin="round"/>
<path d="M128.485 111.164H118.879V116.191H128.485V111.164Z" fill="white" stroke="#141A16" stroke-width="0.203962" stroke-linecap="round" stroke-linejoin="round"/>
<path d="M95.543 120.101H85.9366V125.127H95.543V120.101Z" fill="white" stroke="#141A16" stroke-width="0.203962" stroke-linecap="round" stroke-linejoin="round"/>
<path d="M106.526 120.101H96.9191V125.127H106.526V120.101Z" fill="white" stroke="#141A16" stroke-width="0.203962" stroke-linecap="round" stroke-linejoin="round"/>
<path d="M117.503 120.101H107.896V125.127H117.503V120.101Z" fill="white" stroke="#141A16" stroke-width="0.203962" stroke-linecap="round" stroke-linejoin="round"/>
<path d="M128.485 120.101H118.879V125.127H128.485V120.101Z" fill="white" stroke="#141A16" stroke-width="0.203962" stroke-linecap="round" stroke-linejoin="round"/>
<path d="M95.543 129.042H85.9366V134.069H95.543V129.042Z" fill="white" stroke="#141A16" stroke-width="0.203962" stroke-linecap="round" stroke-linejoin="round"/>
<path d="M106.526 129.042H96.9191V134.069H106.526V129.042Z" fill="white" stroke="#141A16" stroke-width="0.203962" stroke-linecap="round" stroke-linejoin="round"/>
<path d="M117.503 129.042H107.896V134.069H117.503V129.042Z" fill="white" stroke="#141A16" stroke-width="0.203962" stroke-linecap="round" stroke-linejoin="round"/>
<path d="M128.485 129.042H118.879V134.069H128.485V129.042Z" fill="white" stroke="#141A16" stroke-width="0.203962" stroke-linecap="round" stroke-linejoin="round"/>
<path d="M95.543 137.979H85.9366V143.006H95.543V137.979Z" fill="white" stroke="#141A16" stroke-width="0.203962" stroke-linecap="round" stroke-linejoin="round"/>
<path d="M106.526 137.979H96.9191V143.006H106.526V137.979Z" fill="white" stroke="#141A16" stroke-width="0.203962" stroke-linecap="round" stroke-linejoin="round"/>
<path d="M117.503 137.979H107.896V143.006H117.503V137.979Z" fill="white" stroke="#141A16" stroke-width="0.203962" stroke-linecap="round" stroke-linejoin="round"/>
<path d="M128.485 137.979H118.879V143.006H128.485V137.979Z" fill="white" stroke="#141A16" stroke-width="0.203962" stroke-linecap="round" stroke-linejoin="round"/>
<path d="M95.543 146.921H85.9366V151.947H95.543V146.921Z" fill="white" stroke="#141A16" stroke-width="0.203962" stroke-linecap="round" stroke-linejoin="round"/>
<path d="M106.526 146.921H96.9191V151.947H106.526V146.921Z" fill="white" stroke="#141A16" stroke-width="0.203962" stroke-linecap="round" stroke-linejoin="round"/>
<path d="M117.503 146.921H107.896V151.947H117.503V146.921Z" fill="white" stroke="#141A16" stroke-width="0.203962" stroke-linecap="round" stroke-linejoin="round"/>
<path d="M128.485 146.921H118.879V151.947H128.485V146.921Z" fill="white" stroke="#141A16" stroke-width="0.203962" stroke-linecap="round" stroke-linejoin="round"/>
<path d="M95.543 155.857H85.9366V160.884H95.543V155.857Z" fill="white" stroke="#141A16" stroke-width="0.203962" stroke-linecap="round" stroke-linejoin="round"/>
<path d="M106.526 155.857H96.9191V160.884H106.526V155.857Z" fill="white" stroke="#141A16" stroke-width="0.203962" stroke-linecap="round" stroke-linejoin="round"/>
<path d="M117.503 155.857H107.896V160.884H117.503V155.857Z" fill="white" stroke="#141A16" stroke-width="0.203962" stroke-linecap="round" stroke-linejoin="round"/>
<path d="M128.485 155.857H118.879V160.884H128.485V155.857Z" fill="white" stroke="#141A16" stroke-width="0.203962" stroke-linecap="round" stroke-linejoin="round"/>
<path d="M95.543 164.799H85.9366V169.826H95.543V164.799Z" fill="white" stroke="#141A16" stroke-width="0.203962" stroke-linecap="round" stroke-linejoin="round"/>
<path d="M106.526 164.799H96.9191V169.826H106.526V164.799Z" fill="white" stroke="#141A16" stroke-width="0.203962" stroke-linecap="round" stroke-linejoin="round"/>
<path d="M117.503 164.799H107.896V169.826H117.503V164.799Z" fill="white" stroke="#141A16" stroke-width="0.203962" stroke-linecap="round" stroke-linejoin="round"/>
<path d="M128.485 164.799H118.879V169.826H128.485V164.799Z" fill="white" stroke="#141A16" stroke-width="0.203962" stroke-linecap="round" stroke-linejoin="round"/>
<path d="M95.543 173.741H85.9366V178.767H95.543V173.741Z" fill="white" stroke="#141A16" stroke-width="0.203962" stroke-linecap="round" stroke-linejoin="round"/>
<path d="M106.526 173.741H96.9191V178.767H106.526V173.741Z" fill="white" stroke="#141A16" stroke-width="0.203962" stroke-linecap="round" stroke-linejoin="round"/>
<path d="M117.503 173.741H107.896V178.767H117.503V173.741Z" fill="white" stroke="#141A16" stroke-width="0.203962" stroke-linecap="round" stroke-linejoin="round"/>
<path d="M128.485 173.741H118.879V178.767H128.485V173.741Z" fill="white" stroke="#141A16" stroke-width="0.203962" stroke-linecap="round" stroke-linejoin="round"/>
<path d="M95.543 182.678H85.9366V187.704H95.543V182.678Z" fill="white" stroke="#141A16" stroke-width="0.203962" stroke-linecap="round" stroke-linejoin="round"/>
<path d="M106.526 182.678H96.9191V187.704H106.526V182.678Z" fill="white" stroke="#141A16" stroke-width="0.203962" stroke-linecap="round" stroke-linejoin="round"/>
<path d="M117.503 182.678H107.896V187.704H117.503V182.678Z" fill="white" stroke="#141A16" stroke-width="0.203962" stroke-linecap="round" stroke-linejoin="round"/>
<path d="M128.485 182.678H118.879V187.704H128.485V182.678Z" fill="white" stroke="#141A16" stroke-width="0.203962" stroke-linecap="round" stroke-linejoin="round"/>
<path d="M62.0295 66.4656H58.8101V71.4921H62.0295V66.4656Z" fill="white" stroke="#141A16" stroke-width="0.203962" stroke-linecap="round" stroke-linejoin="round"/>
<path d="M65.7111 66.4656H62.4916V71.4921H65.7111V66.4656Z" fill="white" stroke="#141A16" stroke-width="0.203962" stroke-linecap="round" stroke-linejoin="round"/>
<path d="M69.3875 66.4656H66.1681V71.4921H69.3875V66.4656Z" fill="white" stroke="#141A16" stroke-width="0.203962" stroke-linecap="round" stroke-linejoin="round"/>
<path d="M73.0639 66.4656H69.8445V71.4921H73.0639V66.4656Z" fill="white" stroke="#141A16" stroke-width="0.203962" stroke-linecap="round" stroke-linejoin="round"/>
<path d="M62.0295 75.4021H58.8101V80.4286H62.0295V75.4021Z" fill="white" stroke="#141A16" stroke-width="0.203962" stroke-linecap="round" stroke-linejoin="round"/>
<path d="M65.7111 75.4021H62.4916V80.4286H65.7111V75.4021Z" fill="white" stroke="#141A16" stroke-width="0.203962" stroke-linecap="round" stroke-linejoin="round"/>
<path d="M69.3875 75.4021H66.1681V80.4286H69.3875V75.4021Z" fill="white" stroke="#141A16" stroke-width="0.203962" stroke-linecap="round" stroke-linejoin="round"/>
<path d="M73.0639 75.4021H69.8445V80.4286H73.0639V75.4021Z" fill="white" stroke="#141A16" stroke-width="0.203962" stroke-linecap="round" stroke-linejoin="round"/>
<path d="M62.0295 84.3438H58.8101V89.3703H62.0295V84.3438Z" fill="white" stroke="#141A16" stroke-width="0.203962" stroke-linecap="round" stroke-linejoin="round"/>
<path d="M65.7111 84.3438H62.4916V89.3703H65.7111V84.3438Z" fill="white" stroke="#141A16" stroke-width="0.203962" stroke-linecap="round" stroke-linejoin="round"/>
<path d="M69.3875 84.3438H66.1681V89.3703H69.3875V84.3438Z" fill="white" stroke="#141A16" stroke-width="0.203962" stroke-linecap="round" stroke-linejoin="round"/>
<path d="M73.0639 84.3438H69.8445V89.3703H73.0639V84.3438Z" fill="white" stroke="#141A16" stroke-width="0.203962" stroke-linecap="round" stroke-linejoin="round"/>
<path d="M62.0295 93.2805H58.8101V98.307H62.0295V93.2805Z" fill="white" stroke="#141A16" stroke-width="0.203962" stroke-linecap="round" stroke-linejoin="round"/>
<path d="M65.7111 93.2805H62.4916V98.307H65.7111V93.2805Z" fill="white" stroke="#141A16" stroke-width="0.203962" stroke-linecap="round" stroke-linejoin="round"/>
<path d="M69.3875 93.2805H66.1681V98.307H69.3875V93.2805Z" fill="white" stroke="#141A16" stroke-width="0.203962" stroke-linecap="round" stroke-linejoin="round"/>
<path d="M73.0639 93.2805H69.8445V98.307H73.0639V93.2805Z" fill="white" stroke="#141A16" stroke-width="0.203962" stroke-linecap="round" stroke-linejoin="round"/>
<path d="M62.0295 102.222H58.8101V107.249H62.0295V102.222Z" fill="white" stroke="#141A16" stroke-width="0.203962" stroke-linecap="round" stroke-linejoin="round"/>
<path d="M65.7111 102.222H62.4916V107.249H65.7111V102.222Z" fill="white" stroke="#141A16" stroke-width="0.203962" stroke-linecap="round" stroke-linejoin="round"/>
<path d="M69.3875 102.222H66.1681V107.249H69.3875V102.222Z" fill="white" stroke="#141A16" stroke-width="0.203962" stroke-linecap="round" stroke-linejoin="round"/>
<path d="M73.0639 102.222H69.8445V107.249H73.0639V102.222Z" fill="white" stroke="#141A16" stroke-width="0.203962" stroke-linecap="round" stroke-linejoin="round"/>
<path d="M62.0295 111.164H58.8101V116.191H62.0295V111.164Z" fill="white" stroke="#141A16" stroke-width="0.203962" stroke-linecap="round" stroke-linejoin="round"/>
<path d="M65.7111 111.164H62.4916V116.191H65.7111V111.164Z" fill="white" stroke="#141A16" stroke-width="0.203962" stroke-linecap="round" stroke-linejoin="round"/>
<path d="M69.3875 111.164H66.1681V116.191H69.3875V111.164Z" fill="white" stroke="#141A16" stroke-width="0.203962" stroke-linecap="round" stroke-linejoin="round"/>
<path d="M73.0639 111.164H69.8445V116.191H73.0639V111.164Z" fill="white" stroke="#141A16" stroke-width="0.203962" stroke-linecap="round" stroke-linejoin="round"/>
<path d="M62.0295 120.101H58.8101V125.127H62.0295V120.101Z" fill="white" stroke="#141A16" stroke-width="0.203962" stroke-linecap="round" stroke-linejoin="round"/>
<path d="M65.7111 120.101H62.4916V125.127H65.7111V120.101Z" fill="white" stroke="#141A16" stroke-width="0.203962" stroke-linecap="round" stroke-linejoin="round"/>
<path d="M69.3875 120.101H66.1681V125.127H69.3875V120.101Z" fill="white" stroke="#141A16" stroke-width="0.203962" stroke-linecap="round" stroke-linejoin="round"/>
<path d="M73.0639 120.101H69.8445V125.127H73.0639V120.101Z" fill="white" stroke="#141A16" stroke-width="0.203962" stroke-linecap="round" stroke-linejoin="round"/>
<path d="M62.0295 129.042H58.8101V134.069H62.0295V129.042Z" fill="white" stroke="#141A16" stroke-width="0.203962" stroke-linecap="round" stroke-linejoin="round"/>
<path d="M65.7111 129.042H62.4916V134.069H65.7111V129.042Z" fill="white" stroke="#141A16" stroke-width="0.203962" stroke-linecap="round" stroke-linejoin="round"/>
<path d="M69.3875 129.042H66.1681V134.069H69.3875V129.042Z" fill="white" stroke="#141A16" stroke-width="0.203962" stroke-linecap="round" stroke-linejoin="round"/>
<path d="M73.0639 129.042H69.8445V134.069H73.0639V129.042Z" fill="white" stroke="#141A16" stroke-width="0.203962" stroke-linecap="round" stroke-linejoin="round"/>
<path d="M62.0295 137.979H58.8101V143.006H62.0295V137.979Z" fill="white" stroke="#141A16" stroke-width="0.203962" stroke-linecap="round" stroke-linejoin="round"/>
<path d="M65.7111 137.979H62.4916V143.006H65.7111V137.979Z" fill="white" stroke="#141A16" stroke-width="0.203962" stroke-linecap="round" stroke-linejoin="round"/>
<path d="M69.3875 137.979H66.1681V143.006H69.3875V137.979Z" fill="white" stroke="#141A16" stroke-width="0.203962" stroke-linecap="round" stroke-linejoin="round"/>
<path d="M73.0639 137.979H69.8445V143.006H73.0639V137.979Z" fill="white" stroke="#141A16" stroke-width="0.203962" stroke-linecap="round" stroke-linejoin="round"/>
<path d="M62.0295 146.921H58.8101V151.947H62.0295V146.921Z" fill="white" stroke="#141A16" stroke-width="0.203962" stroke-linecap="round" stroke-linejoin="round"/>
<path d="M65.7111 146.921H62.4916V151.947H65.7111V146.921Z" fill="white" stroke="#141A16" stroke-width="0.203962" stroke-linecap="round" stroke-linejoin="round"/>
<path d="M69.3875 146.921H66.1681V151.947H69.3875V146.921Z" fill="white" stroke="#141A16" stroke-width="0.203962" stroke-linecap="round" stroke-linejoin="round"/>
<path d="M73.0639 146.921H69.8445V151.947H73.0639V146.921Z" fill="white" stroke="#141A16" stroke-width="0.203962" stroke-linecap="round" stroke-linejoin="round"/>
<path d="M62.0295 155.857H58.8101V160.884H62.0295V155.857Z" fill="white" stroke="#141A16" stroke-width="0.203962" stroke-linecap="round" stroke-linejoin="round"/>
<path d="M65.7111 155.857H62.4916V160.884H65.7111V155.857Z" fill="white" stroke="#141A16" stroke-width="0.203962" stroke-linecap="round" stroke-linejoin="round"/>
<path d="M69.3875 155.857H66.1681V160.884H69.3875V155.857Z" fill="white" stroke="#141A16" stroke-width="0.203962" stroke-linecap="round" stroke-linejoin="round"/>
<path d="M73.0639 155.857H69.8445V160.884H73.0639V155.857Z" fill="white" stroke="#141A16" stroke-width="0.203962" stroke-linecap="round" stroke-linejoin="round"/>
<path d="M62.0295 164.799H58.8101V169.826H62.0295V164.799Z" fill="white" stroke="#141A16" stroke-width="0.203962" stroke-linecap="round" stroke-linejoin="round"/>
<path d="M65.7111 164.799H62.4916V169.826H65.7111V164.799Z" fill="white" stroke="#141A16" stroke-width="0.203962" stroke-linecap="round" stroke-linejoin="round"/>
<path d="M69.3875 164.799H66.1681V169.826H69.3875V164.799Z" fill="white" stroke="#141A16" stroke-width="0.203962" stroke-linecap="round" stroke-linejoin="round"/>
<path d="M73.0639 164.799H69.8445V169.826H73.0639V164.799Z" fill="white" stroke="#141A16" stroke-width="0.203962" stroke-linecap="round" stroke-linejoin="round"/>
<path d="M62.0295 173.741H58.8101V178.767H62.0295V173.741Z" fill="white" stroke="#141A16" stroke-width="0.203962" stroke-linecap="round" stroke-linejoin="round"/>
<path d="M65.7111 173.741H62.4916V178.767H65.7111V173.741Z" fill="white" stroke="#141A16" stroke-width="0.203962" stroke-linecap="round" stroke-linejoin="round"/>
<path d="M69.3875 173.741H66.1681V178.767H69.3875V173.741Z" fill="white" stroke="#141A16" stroke-width="0.203962" stroke-linecap="round" stroke-linejoin="round"/>
<path d="M73.0639 173.741H69.8445V178.767H73.0639V173.741Z" fill="white" stroke="#141A16" stroke-width="0.203962" stroke-linecap="round" stroke-linejoin="round"/>
<path d="M62.0295 182.678H58.8101V187.704H62.0295V182.678Z" fill="white" stroke="#141A16" stroke-width="0.203962" stroke-linecap="round" stroke-linejoin="round"/>
<path d="M65.7111 182.678H62.4916V187.704H65.7111V182.678Z" fill="white" stroke="#141A16" stroke-width="0.203962" stroke-linecap="round" stroke-linejoin="round"/>
<path d="M69.3875 182.678H66.1681V187.704H69.3875V182.678Z" fill="white" stroke="#141A16" stroke-width="0.203962" stroke-linecap="round" stroke-linejoin="round"/>
<path d="M73.0639 182.678H69.8445V187.704H73.0639V182.678Z" fill="white" stroke="#141A16" stroke-width="0.203962" stroke-linecap="round" stroke-linejoin="round"/>
<path d="M168.999 213.46H30.9461V232.896H168.999V213.46Z" fill="#141A16" stroke="#141A16" stroke-width="0.203962" stroke-linecap="round" stroke-linejoin="round"/>
<path d="M97.9317 219.878H94.3487V232.891H97.9317V219.878Z" fill="white" stroke="#141A16" stroke-width="0.203962" stroke-linecap="round" stroke-linejoin="round"/>
<path d="M81.4553 219.878H77.8724V232.891H81.4553V219.878Z" fill="white" stroke="#141A16" stroke-width="0.203962" stroke-linecap="round" stroke-linejoin="round"/>
<path d="M64.9789 219.878H61.396V232.891H64.9789V219.878Z" fill="white" stroke="#141A16" stroke-width="0.203962" stroke-linecap="round" stroke-linejoin="round"/>
<path d="M48.5026 219.878H44.9196V232.891H48.5026V219.878Z" fill="white" stroke="#141A16" stroke-width="0.203962" stroke-linecap="round" stroke-linejoin="round"/>
<path d="M32.0314 219.878H28.4485V232.891H32.0314V219.878Z" fill="white" stroke="#141A16" stroke-width="0.203962" stroke-linecap="round" stroke-linejoin="round"/>
<path d="M122.207 219.878H118.624V232.891H122.207V219.878Z" fill="white" stroke="#141A16" stroke-width="0.203962" stroke-linecap="round" stroke-linejoin="round"/>
<path d="M146.488 219.878H142.905V232.891H146.488V219.878Z" fill="white" stroke="#141A16" stroke-width="0.203962" stroke-linecap="round" stroke-linejoin="round"/>
<path d="M170.764 219.878H167.181V232.891H170.764V219.878Z" fill="white" stroke="#141A16" stroke-width="0.203962" stroke-linecap="round" stroke-linejoin="round"/>
<path d="M171.673 185.508H77.3271V221.55H171.673V185.508Z" fill="white" stroke="#141A16" stroke-width="0.203962" stroke-linecap="round" stroke-linejoin="round"/>
<path d="M92.5572 185.508H23.6037V221.55H92.5572V185.508Z" fill="white" stroke="#141A16" stroke-width="0.203962" stroke-linecap="round" stroke-linejoin="round"/>
<path d="M89.5611 191.817H26.5947V212.909H89.5611V191.817Z" fill="#141A16" stroke="#141A16" stroke-width="0.203962" stroke-linecap="round" stroke-linejoin="round"/>
<path d="M108.104 191.848H95.0134V200.021H108.104V191.848Z" fill="white" stroke="#141A16" stroke-width="0.203962" stroke-linecap="round" stroke-linejoin="round"/>
<path d="M123.459 191.848H110.368V200.021H123.459V191.848Z" fill="white" stroke="#141A16" stroke-width="0.203962" stroke-linecap="round" stroke-linejoin="round"/>
<path d="M138.808 191.848H125.718V200.021H138.808V191.848Z" fill="white" stroke="#141A16" stroke-width="0.203962" stroke-linecap="round" stroke-linejoin="round"/>
<path d="M154.158 191.848H141.067V200.021H154.158V191.848Z" fill="white" stroke="#141A16" stroke-width="0.203962" stroke-linecap="round" stroke-linejoin="round"/>
<path d="M169.507 191.848H156.417V200.021H169.507V191.848Z" fill="white" stroke="#141A16" stroke-width="0.203962" stroke-linecap="round" stroke-linejoin="round"/>
<path d="M108.104 204.783H95.0134V212.956H108.104V204.783Z" fill="white" stroke="#141A16" stroke-width="0.203962" stroke-linecap="round" stroke-linejoin="round"/>
<path d="M123.459 204.783H110.368V212.956H123.459V204.783Z" fill="white" stroke="#141A16" stroke-width="0.203962" stroke-linecap="round" stroke-linejoin="round"/>
<path d="M138.808 204.783H125.718V212.956H138.808V204.783Z" fill="white" stroke="#141A16" stroke-width="0.203962" stroke-linecap="round" stroke-linejoin="round"/>
<path d="M154.158 204.783H141.067V212.956H154.158V204.783Z" fill="white" stroke="#141A16" stroke-width="0.203962" stroke-linecap="round" stroke-linejoin="round"/>
<path d="M169.507 204.783H156.417V212.956H169.507V204.783Z" fill="white" stroke="#141A16" stroke-width="0.203962" stroke-linecap="round" stroke-linejoin="round"/>
<path d="M37.8316 191.848H27.2749V200.021H37.8316V191.848Z" fill="white" stroke="#141A16" stroke-width="0.203962" stroke-linecap="round" stroke-linejoin="round"/>
<path d="M50.2058 191.848H39.6491V200.021H50.2058V191.848Z" fill="white" stroke="#141A16" stroke-width="0.203962" stroke-linecap="round" stroke-linejoin="round"/>
<path d="M62.5851 191.848H52.0284V200.021H62.5851V191.848Z" fill="white" stroke="#141A16" stroke-width="0.203962" stroke-linecap="round" stroke-linejoin="round"/>
<path d="M74.9645 191.848H64.4077V200.021H74.9645V191.848Z" fill="white" stroke="#141A16" stroke-width="0.203962" stroke-linecap="round" stroke-linejoin="round"/>
<path d="M87.3438 191.848H76.7871V200.021H87.3438V191.848Z" fill="white" stroke="#141A16" stroke-width="0.203962" stroke-linecap="round" stroke-linejoin="round"/>
<path d="M37.8316 204.783H27.2749V212.956H37.8316V204.783Z" fill="white" stroke="#141A16" stroke-width="0.203962" stroke-linecap="round" stroke-linejoin="round"/>
<path d="M50.2058 204.783H39.6491V212.956H50.2058V204.783Z" fill="white" stroke="#141A16" stroke-width="0.203962" stroke-linecap="round" stroke-linejoin="round"/>
<path d="M62.5851 204.783H52.0284V212.956H62.5851V204.783Z" fill="white" stroke="#141A16" stroke-width="0.203962" stroke-linecap="round" stroke-linejoin="round"/>
<path d="M74.9645 204.783H64.4077V212.956H74.9645V204.783Z" fill="white" stroke="#141A16" stroke-width="0.203962" stroke-linecap="round" stroke-linejoin="round"/>
<path d="M87.3438 204.783H76.7871V212.956H87.3438V204.783Z" fill="white" stroke="#141A16" stroke-width="0.203962" stroke-linecap="round" stroke-linejoin="round"/>
<path d="M106.546 179.951H51.0677V185.845H106.546V179.951Z" fill="#141A16" stroke="#141A16" stroke-width="0.203962" stroke-linecap="round" stroke-linejoin="round"/>
<path d="M143.3 179.951H87.8215V185.845H143.3V179.951Z" fill="white" stroke="#141A16" stroke-width="0.203962" stroke-linecap="round" stroke-linejoin="round"/>
<path d="M230.563 27.8995L201.095 57.3679C199.806 58.6563 198.057 59.3798 196.235 59.3793C194.412 59.3788 192.665 58.6544 191.376 57.3653C190.088 56.0763 189.365 54.3282 189.365 52.5057C189.366 50.6832 190.09 48.9356 191.379 47.6472L220.842 18.1788C222.14 16.9344 223.874 16.2482 225.673 16.2672C227.471 16.2862 229.19 17.009 230.461 18.2805C231.733 19.552 232.456 21.2711 232.475 23.0692C232.494 24.8674 231.807 26.6013 230.563 27.8995Z" fill="#141A16" stroke="#141A16" stroke-width="0.203962" stroke-linecap="round" stroke-linejoin="round"/>
<path d="M196.089 58.3234L179.696 74.7323C178.944 75.4842 177.924 75.9067 176.86 75.9067C175.797 75.9067 174.777 75.4842 174.025 74.7323C173.273 73.9803 172.851 72.9605 172.851 71.8971C172.851 70.8337 173.273 69.8138 174.025 69.0619L190.418 52.6738C191.175 51.9494 192.186 51.55 193.233 51.5613C194.281 51.5725 195.282 51.9934 196.024 52.7339C196.765 53.4743 197.187 54.4755 197.199 55.5231C197.211 56.5707 196.813 57.5815 196.089 58.339V58.3234Z" fill="white" stroke="#141A16" stroke-width="0.203962" stroke-linecap="round" stroke-linejoin="round"/>
<path d="M131.689 71.8815C127.223 76.3488 124.182 82.04 122.95 88.2355C121.719 94.4311 122.352 100.853 124.769 106.689C127.187 112.524 131.281 117.512 136.533 121.021C141.786 124.531 147.961 126.404 154.277 126.404C160.594 126.404 166.769 124.531 172.021 121.021C177.274 117.512 181.368 112.524 183.785 106.689C186.203 100.853 186.836 94.4311 185.604 88.2355C184.373 82.04 181.332 76.3488 176.866 71.8815C173.899 68.9147 170.378 66.5612 166.502 64.9556C162.627 63.3499 158.473 62.5234 154.277 62.5234C150.082 62.5234 145.928 63.3499 142.052 64.9556C138.177 66.5612 134.655 68.9147 131.689 71.8815ZM172.888 113.08C169.207 116.761 164.517 119.268 159.411 120.283C154.305 121.299 149.013 120.777 144.203 118.785C139.394 116.793 135.283 113.419 132.391 109.09C129.499 104.762 127.955 99.6729 127.955 94.4671C127.955 89.2613 129.499 84.1723 132.391 79.8438C135.283 75.5153 139.394 72.1416 144.203 70.1493C149.013 68.157 154.305 67.6356 159.411 68.651C164.517 69.6664 169.207 72.173 172.888 75.8539C175.332 78.2982 177.271 81.1999 178.594 84.3936C179.917 87.5873 180.598 91.0102 180.598 94.4671C180.598 97.9239 179.917 101.347 178.594 104.541C177.271 107.734 175.332 110.636 172.888 113.08Z" fill="#141A16" stroke="#141A16" stroke-width="0.203962" stroke-linecap="round" stroke-linejoin="round"/>
<path opacity="0.56" d="M155.726 119.337C170.263 119.337 182.048 107.553 182.048 93.0155C182.048 78.4785 170.263 66.6938 155.726 66.6938C141.189 66.6938 129.404 78.4785 129.404 93.0155C129.404 107.553 141.189 119.337 155.726 119.337Z" fill="white"/>
<path d="M133.143 70.4274C128.677 74.8947 125.636 80.5859 124.404 86.7814C123.173 92.977 123.806 99.3986 126.223 105.234C128.641 111.07 132.735 116.058 137.987 119.567C143.24 123.077 149.415 124.95 155.731 124.95C162.048 124.95 168.223 123.077 173.475 119.567C178.728 116.058 182.822 111.07 185.239 105.234C187.657 99.3986 188.29 92.977 187.058 86.7814C185.827 80.5859 182.785 74.8947 178.319 70.4274C175.353 67.4606 171.832 65.1071 167.956 63.5015C164.081 61.8958 159.926 61.0693 155.731 61.0693C151.536 61.0693 147.382 61.8958 143.506 63.5015C139.631 65.1071 136.109 67.4606 133.143 70.4274ZM174.342 111.626C170.661 115.307 165.971 117.814 160.865 118.829C155.759 119.844 150.467 119.323 145.657 117.331C140.848 115.338 136.737 111.965 133.845 107.636C130.953 103.308 129.409 98.2188 129.409 93.013C129.409 87.8071 130.953 82.7182 133.845 78.3897C136.737 74.0612 140.848 70.6875 145.657 68.6952C150.467 66.7029 155.759 66.1815 160.865 67.1969C165.971 68.2123 170.661 70.7189 174.342 74.3998C176.786 76.8441 178.725 79.7459 180.048 82.9395C181.371 86.1332 182.052 89.5561 182.052 93.013C182.052 96.4698 181.371 99.8928 180.048 103.086C178.725 106.28 176.786 109.182 174.342 111.626Z" fill="white" stroke="#141A16" stroke-width="0.203962" stroke-linecap="round" stroke-linejoin="round"/>
<path d="M72.1345 58.2298V40.5176" stroke="#141A16" stroke-width="0.203962" stroke-linecap="round" stroke-linejoin="round"/>
<path d="M70.6597 34.0632V37.0698L69.4602 39.1469C69.4595 39.4794 69.5244 39.8088 69.6512 40.1162C69.778 40.4236 69.9642 40.703 70.1991 40.9384C70.4339 41.1737 70.713 41.3605 71.0201 41.4879C71.3273 41.6153 71.6565 41.6809 71.989 41.6809C72.6562 41.6809 73.2962 41.4173 73.7699 40.9476C74.2436 40.4778 74.5124 39.8399 74.5179 39.1728V37.0958" stroke="#141A16" stroke-width="0.611886" stroke-linecap="round" stroke-linejoin="round"/>
<path d="M68.0479 33.9231H73.1159V28.2942H68.0479V33.9231Z" fill="white" stroke="#141A16" stroke-width="0.203962" stroke-linecap="round" stroke-linejoin="round"/>
<path d="M66.1785 32.0432H74.9957V20.7388H66.1785V32.0432Z" fill="white" stroke="#141A16" stroke-width="0.203962" stroke-linecap="round" stroke-linejoin="round"/>
<path d="M63.551 29.8882H77.5297V26.4195H63.551V29.8882Z" fill="white" stroke="#141A16" stroke-width="0.203962" stroke-linecap="round" stroke-linejoin="round"/>
<path d="M70.5818 26.4143H72.5862L75.4162 29.6234L75.1202 29.8882H73.6455L70.5818 26.4143Z" fill="#141A16"/>
<path d="M76.4288 26.4143L77.5245 27.6554V29.8882H77.4881L74.4296 26.4143H76.4288Z" fill="#141A16"/>
<path d="M66.7341 26.4143H68.7384L71.5685 29.6234L71.2725 29.8882H69.7978L66.7341 26.4143Z" fill="#141A16"/>
<path d="M63.5458 27.1621V26.4143H64.8907L67.7207 29.6234L67.4247 29.8882H65.95L63.5458 27.1621Z" fill="#141A16"/>
<path d="M70.7844 20.5414V13.739" stroke="#141A16" stroke-width="0.407924" stroke-linecap="round" stroke-linejoin="round"/>
<path d="M1 13.5677H74.3154V9.49144L55.8243 1.66089H1" stroke="#141A16" stroke-width="0.407924" stroke-linecap="round" stroke-linejoin="round"/>
<path d="M55.8243 13.5677V1.66089L43.6059 13.5677V1.66089L55.8243 13.5677Z" stroke="#141A16" stroke-width="0.407924" stroke-linecap="round" stroke-linejoin="round"/>
<path d="M37.4422 7.67401L31.3979 13.5677V1.66089L43.6215 13.5677V1.66089L37.4422 7.67401Z" stroke="#141A16" stroke-width="0.407924" stroke-linecap="round" stroke-linejoin="round"/>
<path d="M31.4135 13.5677V1.66089L19.1951 13.5677V1.66089L31.4135 13.5677Z" stroke="#141A16" stroke-width="0.407924" stroke-linecap="round" stroke-linejoin="round"/>
<path d="M13.4001 7.90768L19.2107 13.5677V1.66089L6.98715 13.5677V1.66089L13.4001 7.90768Z" stroke="#141A16" stroke-width="0.407924" stroke-linecap="round" stroke-linejoin="round"/>
<path d="M71.8177 49.5894L27.062 83.3729" stroke="#141A16" stroke-width="0.203962" stroke-linecap="round" stroke-linejoin="round"/>
<path d="M71.8177 49.5894L116.573 83.3729" stroke="#141A16" stroke-width="0.203962" stroke-linecap="round" stroke-linejoin="round"/>
<path d="M115.857 82.8744C100.962 78.467 87.2818 70.6921 75.8732 60.1513C74.8322 59.1682 73.4546 58.6206 72.0228 58.6206C70.591 58.6206 69.2135 59.1682 68.1725 60.1513C56.7651 70.6938 43.084 78.4689 28.1889 82.8744C26.9553 83.2442 25.8867 84.0272 25.1623 85.092C24.438 86.1567 24.1022 87.4383 24.2113 88.7214C25.2498 100.826 31.5174 134.417 68.3023 166.523C69.3258 167.417 70.6383 167.909 71.9969 167.909C73.3554 167.909 74.6679 167.417 75.6914 166.523C112.476 134.433 118.744 100.826 119.782 88.7214C119.896 87.4446 119.569 86.1674 118.854 85.1032C118.14 84.039 117.082 83.2522 115.857 82.8744Z" fill="#12D96A" stroke="#141A16" stroke-width="0.203962" stroke-linecap="round" stroke-linejoin="round"/>
<path d="M107.419 87.9061C95.6999 84.313 84.9157 78.1843 75.8317 69.955C74.799 69.011 73.4505 68.4875 72.0514 68.4875C70.6523 68.4875 69.3038 69.011 68.2712 69.955C59.1854 78.1818 48.4017 84.3102 36.6841 87.9061C35.4375 88.2824 34.3603 89.08 33.6367 90.1626C32.9131 91.2452 32.5879 92.5455 32.7169 93.8413C33.7866 104.419 39.4207 131 68.3283 156.553C69.3557 157.46 70.6787 157.96 72.0488 157.96C73.419 157.96 74.742 157.46 75.7694 156.553C104.682 131 110.311 104.419 111.386 93.8413C111.512 92.546 111.186 91.2471 110.462 90.1651C109.739 89.0832 108.664 88.285 107.419 87.9061Z" fill="#141A16" stroke="#141A16" stroke-width="0.203962" stroke-miterlimit="10"/>
<path d="M107.419 87.9061C97.9035 84.9677 88.9809 80.3745 81.0607 74.3376C80.2291 73.7033 79.2367 73.3141 78.1955 73.2142C77.1544 73.1142 76.106 73.3074 75.1689 73.7719C74.2318 74.2364 73.4432 74.9537 72.8923 75.8428C72.3414 76.7319 72.0502 77.7574 72.0514 78.8033V147.082C72.0508 148.19 72.3782 149.273 72.9924 150.195C73.6066 151.117 74.4802 151.836 75.5028 152.262C76.5254 152.688 77.6512 152.802 78.7383 152.589C79.8254 152.375 80.8251 151.845 81.6111 151.065C105.461 127.282 110.389 103.655 111.386 93.8361C111.511 92.5417 111.184 91.2439 110.461 90.1631C109.738 89.0822 108.663 88.2848 107.419 87.9061Z" fill="white" stroke="#141A16" stroke-width="0.203962" stroke-linecap="round" stroke-linejoin="round"/>
<path d="M80.9315 118.486C85.4374 113.98 85.4374 106.675 80.9315 102.169C76.4256 97.663 69.12 97.663 64.6141 102.169C60.1082 106.675 60.1082 113.98 64.6141 118.486C69.12 122.992 76.4256 122.992 80.9315 118.486Z" fill="white" stroke="#141A16" stroke-width="0.611886" stroke-linecap="round" stroke-linejoin="round"/>
<path d="M73.5937 115.168C73.2234 115.165 72.8581 115.082 72.5223 114.927C72.1864 114.771 71.8878 114.545 71.6464 114.264L66.5836 108.355C66.1791 107.828 65.992 107.166 66.0608 106.505C66.1295 105.845 66.4488 105.235 66.9531 104.803C67.4573 104.371 68.1081 104.148 68.7715 104.181C69.4349 104.214 70.0605 104.5 70.5196 104.98L73.6352 108.651L84.0206 97.0608C84.2398 96.7809 84.5141 96.5491 84.8265 96.3796C85.1389 96.2101 85.4829 96.1066 85.8369 96.0754C86.191 96.0443 86.5478 96.0861 86.885 96.1985C87.2222 96.3108 87.5328 96.4912 87.7975 96.7284C88.0622 96.9657 88.2753 97.2548 88.4237 97.5778C88.5722 97.9008 88.6527 98.2508 88.6603 98.6062C88.6679 98.9615 88.6025 99.3147 88.468 99.6437C88.3336 99.9728 88.133 100.271 87.8787 100.519L75.5565 114.306C75.3136 114.576 75.0167 114.793 74.6848 114.941C74.3529 115.09 73.9936 115.167 73.63 115.168H73.5937Z" fill="#12D96A"/>
<path d="M85.999 96.9776C86.3496 96.9761 86.6931 97.0768 86.9876 97.2672C87.282 97.4576 87.5147 97.7295 87.6573 98.0499C87.7999 98.3703 87.8461 98.7252 87.7905 99.0714C87.7348 99.4176 87.5797 99.7402 87.3439 99.9997L74.9645 113.786C74.7945 113.976 74.5863 114.128 74.3537 114.231C74.1211 114.335 73.8692 114.389 73.6144 114.389C73.3566 114.385 73.1024 114.327 72.8688 114.217C72.6352 114.108 72.4274 113.951 72.2591 113.755L67.1963 107.846C67.0359 107.666 66.9131 107.456 66.8349 107.228C66.7568 107 66.7248 106.759 66.741 106.518C66.7572 106.278 66.8212 106.043 66.9293 105.828C67.0373 105.612 67.1872 105.421 67.3702 105.264C67.5532 105.107 67.7657 104.988 67.9951 104.915C68.2246 104.841 68.4664 104.814 68.7065 104.835C68.9466 104.856 69.18 104.924 69.3933 105.036C69.6065 105.149 69.7953 105.302 69.9484 105.488L73.6664 109.829L84.6489 97.5799C84.8185 97.3898 85.0266 97.2377 85.2593 97.1339C85.492 97.0301 85.7441 96.9768 85.999 96.9776ZM85.999 95.4198C85.5262 95.4207 85.0588 95.5205 84.6269 95.7128C84.195 95.9051 83.808 96.1855 83.4909 96.5362L73.6768 107.441L71.1116 104.45C70.8235 104.114 70.472 103.838 70.0771 103.637C69.6823 103.437 69.2519 103.316 68.8104 103.282C68.369 103.248 67.9252 103.302 67.5043 103.439C67.0835 103.577 66.6939 103.796 66.3577 104.084C66.0215 104.372 65.7453 104.723 65.545 105.118C65.3447 105.513 65.2241 105.943 65.1901 106.385C65.1561 106.826 65.2094 107.27 65.3469 107.691C65.4844 108.112 65.7035 108.501 65.9916 108.838L71.0596 114.742C71.371 115.107 71.7568 115.401 72.1912 115.604C72.6256 115.807 73.0985 115.915 73.5781 115.92H73.6144C74.0874 115.921 74.5552 115.822 74.9873 115.629C75.4194 115.437 75.8062 115.156 76.1225 114.804L88.5018 101.017C88.9372 100.533 89.2231 99.9335 89.3248 99.2904C89.4266 98.6472 89.3398 97.9884 89.075 97.3936C88.8103 96.7987 88.3789 96.2933 87.833 95.9384C87.2871 95.5835 86.6501 95.3943 85.999 95.3938V95.4198Z" fill="#141A16"/>
<path d="M200.181 227.397C200.181 227.397 198.384 230.134 196.92 231.286C195.455 232.439 192.018 234.101 191.057 234.874C190.096 235.648 190.538 236.339 190.855 236.671C191.171 237.003 195.606 237.247 198.015 237.253C200.425 237.258 204.766 236.214 204.766 236.214C204.766 236.214 206.687 236.521 207.17 236.276C207.653 236.032 207.97 235.487 208.042 234.636C208.115 233.784 207.845 228.976 207.845 228.976L200.181 227.397Z" fill="white" stroke="#141A16" stroke-width="0.203962" stroke-linecap="round" stroke-linejoin="round"/>
<path d="M205.332 234.942C203.457 235.243 203.088 235.669 199.469 236.209C196.483 236.656 192.07 236.105 190.46 235.82C190.465 235.978 190.502 236.134 190.568 236.279C190.634 236.423 190.728 236.553 190.844 236.661C191.176 236.993 195.595 237.237 198.005 237.242C200.414 237.248 204.755 236.204 204.755 236.204C204.755 236.204 206.677 236.51 207.159 236.266C207.433 236.095 207.658 235.856 207.811 235.572C207.964 235.288 208.04 234.969 208.032 234.646C207.127 234.692 206.225 234.791 205.332 234.942Z" fill="#141A16" stroke="#141A16" stroke-width="0.203962" stroke-linecap="round" stroke-linejoin="round"/>
<path d="M201.738 229.406C201.738 229.406 199.661 228.482 198.264 230.04" stroke="#141A16" stroke-width="0.407924" stroke-linecap="round" stroke-linejoin="round"/>
<path d="M199.365 228.622C199.365 228.622 200.959 229.874 200.746 231.219" stroke="#141A16" stroke-width="0.407924" stroke-linecap="round" stroke-linejoin="round"/>
<path d="M200.181 230.85C200.181 230.85 198.545 230.092 197.434 231.369" stroke="#141A16" stroke-width="0.407924" stroke-linecap="round" stroke-linejoin="round"/>
<path d="M198.316 230.211C198.316 230.211 199.573 231.25 199.396 232.34" stroke="#141A16" stroke-width="0.407924" stroke-linecap="round" stroke-linejoin="round"/>
<path d="M198.976 232.314C198.976 232.314 197.465 231.603 195.087 232.444" stroke="#141A16" stroke-width="0.407924" stroke-linecap="round" stroke-linejoin="round"/>
<path d="M197.065 231.665C197.178 231.78 197.264 231.919 197.316 232.072C197.367 232.225 197.383 232.388 197.363 232.548C197.342 232.708 197.286 232.861 197.197 232.996C197.109 233.131 196.991 233.244 196.852 233.327" stroke="#141A16" stroke-width="0.407924" stroke-linecap="round" stroke-linejoin="round"/>
<path d="M212.015 229.993C212.015 229.993 211.127 233.171 210.805 233.628C210.483 234.085 208.369 236.744 208.354 237.673C208.338 238.603 209.013 239.319 210.696 239.704C212.378 240.088 215.006 240.223 217.088 239.273C219.17 238.322 220.115 238.011 220.645 236.557C221.175 235.103 220.821 230.227 220.821 230.227C220.821 230.227 214.305 225.424 212.015 229.993Z" fill="white" stroke="#141A16" stroke-width="0.203962" stroke-linecap="round" stroke-linejoin="round"/>
<path d="M220.645 236.541C220.854 235.761 220.957 234.956 220.951 234.147C220.515 234.841 220.026 235.499 219.487 236.115C218.448 237.253 216.688 238.515 213.308 238.764C211.562 238.919 209.826 238.386 208.468 237.279C208.421 237.407 208.391 237.542 208.38 237.678C208.38 238.629 209.039 239.325 210.722 239.709C212.404 240.093 215.032 240.228 217.114 239.278C219.196 238.328 220.115 237.995 220.645 236.541Z" fill="#141A16" stroke="#141A16" stroke-width="0.203962" stroke-linecap="round" stroke-linejoin="round"/>
<path d="M216.6 228.913C216.6 228.913 213.749 228.773 212.856 230.471" stroke="#141A16" stroke-width="0.407924" stroke-linecap="round" stroke-linejoin="round"/>
<path d="M213.479 228.955C213.479 228.955 215.925 229.474 216.304 230.637" stroke="#141A16" stroke-width="0.407924" stroke-linecap="round" stroke-linejoin="round"/>
<path d="M216.034 230.99C216.034 230.99 213.183 230.855 212.29 232.548" stroke="#141A16" stroke-width="0.407924" stroke-linecap="round" stroke-linejoin="round"/>
<path d="M212.913 231.032C212.913 231.032 215.359 231.551 215.733 232.714" stroke="#141A16" stroke-width="0.407924" stroke-linecap="round" stroke-linejoin="round"/>
<path d="M215.463 233.067C215.463 233.067 212.612 232.932 211.719 234.625" stroke="#141A16" stroke-width="0.407924" stroke-linecap="round" stroke-linejoin="round"/>
<path d="M212.347 233.109C212.347 233.109 214.788 233.628 215.167 234.791" stroke="#141A16" stroke-width="0.407924" stroke-linecap="round" stroke-linejoin="round"/>
<path d="M194.988 167.608C194.988 167.608 196.083 184.126 196.546 188.763C197.008 193.4 198.155 204.092 198.249 204.378C198.342 204.663 198.628 208.444 198.628 208.444C198.628 208.444 198.342 209.96 198.721 213.273C199.1 216.586 200.238 223.492 200.238 223.492C200.238 223.492 199.287 223.679 199.386 224.437C199.485 225.195 199.859 227.277 199.859 227.277C199.859 227.277 203.452 228.503 204.496 228.602C205.539 228.7 207.611 228.602 207.611 228.602C207.611 228.602 208.463 227.179 208.369 226.426C208.173 225.496 207.92 224.578 207.611 223.679L208.084 218.097L208.842 195.296C208.842 195.296 211.776 217.531 212.248 219.135C212.721 220.74 213.193 223.29 213.193 223.29C213.193 223.29 212.248 224.048 212.248 224.52C212.248 224.993 212.435 228.306 212.435 228.306C212.435 228.306 214.331 226.789 216.127 227.075C217.924 227.361 220.858 229.443 220.858 229.443C220.977 228.483 221.168 227.534 221.429 226.602C221.803 225.372 221.05 222.251 220.858 221.41C220.638 220.447 220.606 219.451 220.764 218.476C220.951 217.624 221.05 214.976 221.143 214.124C221.237 213.273 221.05 192.076 221.05 192.076L222.982 167.801L195.46 166.949L194.988 167.608Z" fill="#141A16" stroke="#141A16" stroke-width="0.203962" stroke-linecap="round" stroke-linejoin="round"/>
<path d="M199.23 131.899C199.23 131.899 195.704 138.488 194.785 140.378C193.866 142.268 192.797 144.402 192.797 144.402C189.442 139.547 186.114 134.713 182.479 130.066L181.669 129.12C181.669 129.12 177.13 127.407 176.704 127.822C176.279 128.238 175.256 134.635 176.253 135.611C177.25 136.587 181.445 137.169 181.445 137.169L182.24 137.995L182.131 138.093C182.131 138.093 188.481 152.186 189.504 153.152C190.527 154.118 191.732 155.816 193.944 155.925C195.211 155.982 199.5 146.916 199.5 146.916L199.23 131.899Z" fill="white" stroke="#141A16" stroke-width="0.203962" stroke-linecap="round" stroke-linejoin="round"/>
<path d="M198.804 131.805L193.363 141.323L197.662 151.584L200.321 146.147C200.321 146.147 201.842 131.213 200.7 131.088C200.35 131.059 199.999 131.109 199.671 131.233C199.343 131.357 199.047 131.552 198.804 131.805Z" fill="white" stroke="#141A16" stroke-width="0.203962" stroke-linecap="round" stroke-linejoin="round"/>
<path d="M191.971 142.585C191.971 142.585 196.27 154.102 196.779 154.102C197.288 154.102 198.804 151.823 198.675 150.686C198.545 149.548 195.133 140.56 194.001 140.435C192.869 140.311 192.475 141.448 191.971 142.585Z" fill="white" stroke="#141A16" stroke-width="0.203962" stroke-linecap="round" stroke-linejoin="round"/>
<path d="M184.166 132.153C184.166 132.153 182.65 129.525 182.484 128.456C182.219 126.794 184.125 125.761 183.247 125.366C182.37 124.971 180.739 126.114 180.589 127.303C180.498 128.052 180.528 128.811 180.677 129.551C180.677 129.551 179.825 131.109 180.043 132.272C180.261 133.436 180.848 134.708 181.295 134.869" fill="white"/>
<path d="M184.166 132.153C184.166 132.153 182.65 129.525 182.484 128.456C182.219 126.794 184.125 125.761 183.247 125.366C182.37 124.971 180.739 126.114 180.589 127.303C180.498 128.052 180.528 128.811 180.677 129.551C180.677 129.551 179.825 131.109 180.043 132.272C180.261 133.436 180.848 134.708 181.295 134.869" stroke="#141A16" stroke-width="0.203962" stroke-linecap="round" stroke-linejoin="round"/>
<path d="M176.035 126.508C175.889 126.472 175.738 126.465 175.591 126.489C175.443 126.512 175.302 126.566 175.175 126.646C175.049 126.726 174.94 126.832 174.856 126.955C174.771 127.079 174.713 127.218 174.684 127.365C174.626 127.493 174.594 127.632 174.591 127.773C174.587 127.913 174.613 128.053 174.665 128.184C174.718 128.315 174.796 128.433 174.896 128.533C174.996 128.632 175.114 128.71 175.245 128.762C175.765 129.016 178.667 130.678 178.958 129.878C179.249 129.079 179.529 128.362 178.922 128.004C178.314 127.646 176.035 126.508 176.035 126.508Z" fill="white" stroke="#141A16" stroke-width="0.203962" stroke-linecap="round" stroke-linejoin="round"/>
<path d="M175.671 128.902C175.526 128.865 175.375 128.857 175.228 128.881C175.08 128.904 174.938 128.957 174.812 129.036C174.685 129.116 174.577 129.221 174.492 129.344C174.408 129.468 174.35 129.607 174.321 129.754C174.262 129.882 174.229 130.021 174.225 130.163C174.222 130.304 174.247 130.445 174.299 130.576C174.352 130.707 174.43 130.826 174.531 130.926C174.631 131.026 174.75 131.104 174.882 131.156C175.401 131.41 178.299 133.072 178.595 132.267C178.891 131.462 179.161 130.756 178.558 130.398C177.956 130.04 175.671 128.902 175.671 128.902Z" fill="white" stroke="#141A16" stroke-width="0.203962" stroke-linecap="round" stroke-linejoin="round"/>
<path d="M175.427 131.358C175.304 131.327 175.175 131.321 175.05 131.341C174.924 131.361 174.804 131.407 174.697 131.475C174.589 131.543 174.497 131.632 174.425 131.737C174.353 131.842 174.304 131.961 174.279 132.085C174.229 132.194 174.201 132.312 174.197 132.432C174.194 132.553 174.216 132.672 174.26 132.784C174.305 132.895 174.372 132.996 174.458 133.081C174.543 133.165 174.645 133.231 174.757 133.274C175.204 133.493 177.665 134.905 177.914 134.225C178.164 133.544 178.397 132.937 177.883 132.631C177.369 132.324 175.427 131.358 175.427 131.358Z" fill="white" stroke="#141A16" stroke-width="0.203962" stroke-linecap="round" stroke-linejoin="round"/>
<path d="M175.526 133.545C175.415 133.514 175.299 133.506 175.185 133.523C175.071 133.54 174.961 133.58 174.864 133.641C174.766 133.702 174.682 133.782 174.617 133.878C174.553 133.973 174.508 134.08 174.487 134.194C174.445 134.289 174.423 134.392 174.422 134.497C174.421 134.601 174.44 134.705 174.479 134.801C174.518 134.898 174.576 134.986 174.65 135.06C174.724 135.134 174.811 135.192 174.908 135.232C175.308 135.424 177.504 136.686 177.722 136.079C177.94 135.471 178.153 134.931 177.722 134.656C177.291 134.381 175.526 133.545 175.526 133.545Z" fill="white" stroke="#141A16" stroke-width="0.203962" stroke-linecap="round" stroke-linejoin="round"/>
<path d="M205.062 126.887C205.062 126.887 199.215 129.567 198.83 130.522C198.446 131.478 196.478 150.826 195.341 158.563C194.204 166.3 194.692 168.356 194.692 168.356C194.692 168.356 195.907 170.875 207.85 170.464C219.793 170.054 224.01 168.273 224.176 167.219C224.342 166.165 224.498 167.499 224.498 166.767C224.498 166.035 225.391 131.519 224.498 129.406C223.605 127.292 218.568 123.803 217.109 123.642C215.649 123.481 205.062 126.887 205.062 126.887Z" fill="#12D96A" stroke="#141A16" stroke-width="0.203962" stroke-linecap="round" stroke-linejoin="round"/>
<path d="M195.331 159.731V159.825C195.133 161.17 194.993 162.379 194.894 163.486C200.889 164.697 207.011 165.161 213.121 164.867C219.352 164.488 222.81 164.259 224.57 164.145C224.596 163.08 224.622 161.845 224.648 160.479C220.484 160.931 204.231 162.338 195.331 159.731Z" fill="white" stroke="#141A16" stroke-width="0.203962" stroke-linecap="round" stroke-linejoin="round"/>
<path d="M214.907 143.021C215.177 141.515 216.527 134.162 218.277 129.453L221.128 131.338L223.963 131.41C223.963 131.41 217.602 125.807 215.805 125.325C215.444 125.271 215.076 125.271 214.715 125.325C211.142 126.202 205.062 128.165 205.062 128.165C205.062 128.165 199.215 130.844 198.83 131.8C198.703 132.335 198.607 132.878 198.545 133.425L200.009 132.594L198.244 141.832C197.958 141.765 197.678 141.692 197.408 141.614L196.977 145.347C202.871 146.513 208.885 146.956 214.886 146.666C219.7 146.37 222.862 146.147 224.861 146.038C224.861 144.818 224.861 143.608 224.861 142.429C222.582 142.642 218.952 142.917 214.907 143.021ZM199.91 142.19L202.071 131.436C204.771 129.946 207.881 128.321 209.237 127.885C210.903 127.37 212.616 127.022 214.351 126.846L215.852 127.843C215.681 128.284 212.477 136.587 211.625 143.026L212.061 143.063C207.993 143.129 203.927 142.837 199.91 142.19Z" fill="white" stroke="#141A16" stroke-width="0.203962" stroke-linecap="round" stroke-linejoin="round"/>
<path d="M199.599 166.206C199.64 166.944 199.703 167.66 199.781 168.356" stroke="#141A16" stroke-width="0.203962" stroke-miterlimit="10"/>
<path d="M201.437 150.166C200.596 155.073 199.428 158.859 199.537 164.586" stroke="#141A16" stroke-width="0.203962" stroke-miterlimit="10"/>
<path d="M202.87 142.85C202.87 142.85 202.263 145.384 201.583 149.138" stroke="#141A16" stroke-width="0.203962" stroke-miterlimit="10"/>
<path d="M196.39 167.894C196.39 167.894 191.379 167.136 191.093 167.702C190.808 168.268 191.093 176.01 191.566 176.504C192.038 176.997 195.258 177.641 196.203 177.07C197.148 176.498 197.714 176.125 197.906 175.652C198.098 175.18 198.093 169.218 197.714 168.46C197.58 168.24 197.38 168.067 197.142 167.965C196.905 167.864 196.642 167.839 196.39 167.894Z" fill="#141A16" stroke="#141A16" stroke-width="0.203962" stroke-linecap="round" stroke-linejoin="round"/>
<path d="M202.351 168.839C202.351 168.839 201.598 176.504 202.824 176.976C204.202 177.398 205.641 177.591 207.082 177.547C207.559 177.449 209.263 177.168 209.543 176.41C209.823 175.652 209.829 169.691 209.636 169.14C209.444 168.59 202.824 168.081 202.351 168.839Z" fill="#141A16" stroke="#141A16" stroke-width="0.203962" stroke-linecap="round" stroke-linejoin="round"/>
<path d="M214.273 169.691C214.273 169.691 214.652 178.3 214.845 178.679C215.037 179.058 218.63 181.426 219.29 181.327C219.949 181.229 225.251 180.668 225.521 179.624C225.791 178.581 226.466 170.163 225.9 169.239C225.334 168.315 224.098 167.915 222.966 167.821C221.834 167.728 215.239 168.652 215.239 168.652C214.977 168.671 214.731 168.788 214.551 168.981C214.372 169.174 214.273 169.427 214.273 169.691Z" fill="#141A16" stroke="#141A16" stroke-width="0.203962" stroke-linecap="round" stroke-linejoin="round"/>
<path d="M207.497 124.738L205.062 126.887L204.979 129.37L203.031 141.552C203.031 141.552 214.564 126.524 214.72 126.28C215.473 125.765 216.26 125.304 217.077 124.899L216.345 121.892L215.125 122.219L207.497 124.738Z" fill="white" stroke="#141A16" stroke-width="0.203962" stroke-linecap="round" stroke-linejoin="round"/>
<path d="M205.062 126.887L206.692 130.112L206.947 127.646L208.343 131.068L213.032 127.246" stroke="#141A16" stroke-width="0.203962" stroke-linecap="round" stroke-linejoin="round"/>
<path d="M205.892 107.202C205.892 107.202 204.854 109.212 204.786 109.503C204.765 109.895 204.765 110.289 204.786 110.681C204.786 110.681 202.138 113.309 202.226 113.501C202.315 113.693 203.333 114.02 203.333 114.02C203.333 114.02 202.361 120.724 202.927 120.88C203.493 121.035 207.57 120.677 207.57 120.677L206.931 127.646L215.634 122.624L216.621 117.998C216.621 117.998 219.43 115.459 219.684 113.958C219.939 112.457 219.762 112.135 219.762 112.135L205.892 107.202Z" fill="white" stroke="#141A16" stroke-width="0.203962" stroke-linecap="round" stroke-linejoin="round"/>
<path d="M219.778 112.12L210.883 109.004L210.841 109.679L209.953 112.795C209.953 112.795 212.653 111.543 213.157 111.393C213.661 111.242 214.299 113.007 213.614 113.901C212.929 114.794 210.976 115.817 210.976 115.817C210.976 115.817 212.534 118.101 214.476 118.553C215.138 118.707 215.818 118.767 216.496 118.73L216.636 118.034C216.636 118.034 219.445 115.495 219.7 113.994C219.954 112.493 219.778 112.12 219.778 112.12Z" fill="#141A16" stroke="#141A16" stroke-width="0.203962" stroke-linecap="round" stroke-linejoin="round"/>
<path d="M205.373 109.425C205.677 109.308 206.012 109.304 206.319 109.411C206.626 109.518 206.885 109.731 207.05 110.011" stroke="#141A16" stroke-width="0.203962" stroke-linecap="round" stroke-linejoin="round"/>
<path d="M205.965 111.128C205.898 111.512 205.716 111.797 205.56 111.772C205.404 111.746 205.321 111.413 205.389 111.029C205.456 110.645 205.638 110.359 205.794 110.39C205.95 110.421 206.027 110.749 205.965 111.128Z" fill="#141A16"/>
<path d="M202.829 120.75L209.512 120.506L207.45 122.458L207.523 120.698L202.829 120.75Z" fill="#141A16" stroke="#141A16" stroke-width="0.203962" stroke-linecap="round" stroke-linejoin="round"/>
<path d="M214.331 112.088L216.496 118.693L218.261 117.504L216.205 112.234L214.331 112.088Z" fill="white" stroke="#141A16" stroke-width="0.203962" stroke-linecap="round" stroke-linejoin="round"/>
<path d="M204.973 105.629C204.973 105.629 200.819 105.463 201.297 105.717C201.775 105.971 221.616 116.014 221.616 116.014C221.538 115.325 221.512 114.63 221.538 113.937C221.626 113.418 223.023 110.302 223.262 106.901C223.501 103.5 216.74 100.405 213.276 99.465C209.813 98.5252 207.772 99.9012 207.118 101.688C206.542 103.072 205.824 104.393 204.973 105.629Z" fill="#12D96A" stroke="#141A16" stroke-width="0.203962" stroke-linecap="round" stroke-linejoin="round"/>
<path d="M210.488 108.381L207.019 106.408C207.019 106.408 210 101.89 210.031 101.288C210.048 100.912 210.086 100.537 210.145 100.166C210.145 100.166 210.384 99.2157 213.578 100.166" stroke="#141A16" stroke-width="0.203962" stroke-linecap="round" stroke-linejoin="round"/>
<path d="M203.031 114.43C203.708 114.24 204.422 114.22 205.108 114.373C205.924 114.669 206.105 115.266 206.438 115.204C206.77 115.142 208.769 114.685 206.666 116.092C205.877 116.611 205.171 116.44 204.553 116.367C204.082 116.296 203.618 116.185 203.166 116.035C202.942 115.836 202.803 115.558 202.778 115.259C202.753 114.961 202.844 114.664 203.031 114.43Z" fill="#141A16" stroke="#141A16" stroke-width="0.203962" stroke-linecap="round" stroke-linejoin="round"/>
<path d="M218.355 167.006C217.851 167.554 217.257 168.012 216.6 168.361C216.628 168.507 216.613 168.658 216.556 168.795C216.498 168.931 216.402 169.048 216.278 169.13" stroke="#141A16" stroke-width="0.203962" stroke-linecap="round" stroke-linejoin="round"/>
<path d="M236.322 146.832C234.566 142.45 231.773 138.571 229.431 134.474C228.731 133.114 227.898 131.827 226.944 130.631C225.974 129.429 224.594 128.627 223.07 128.378H222.992C222.438 128.324 221.88 128.389 221.354 128.568C220.827 128.748 220.345 129.036 219.939 129.416C219.149 130.193 218.672 131.234 218.599 132.34C218.222 134.977 218.706 137.665 219.98 140.004C221.31 142.413 223.376 144.272 225.308 146.235C225.874 146.812 226.424 147.393 226.944 148.006C223.565 152.295 220.183 156.586 216.797 160.879C216.587 161.125 216.412 161.399 216.278 161.694H216.143L213.276 163.345C213.276 163.345 211.158 164.784 211.121 165.5C211.044 167.022 211.61 167.655 212.072 168.387C212.642 168.997 213.277 169.542 213.967 170.013C214.424 170.257 215.525 170.688 216.267 170.07C217.01 169.452 219.222 168.839 219.347 167.852C219.471 166.866 218.36 166.99 218.36 166.99C219.088 166.386 219.552 165.522 219.653 164.581C219.979 164.513 220.296 164.409 220.598 164.269C221.561 163.773 222.452 163.147 223.246 162.41C227.001 159.295 231.035 156.48 234.847 153.427C235.608 152.902 236.241 152.214 236.701 151.412C237.37 150.026 236.914 148.302 236.322 146.832Z" fill="white" stroke="#141A16" stroke-width="0.203962" stroke-linecap="round" stroke-linejoin="round"/>
<path d="M236.322 146.832C234.438 145.769 232.341 145.139 230.184 144.989C228.475 144.951 226.789 145.382 225.308 146.235C223.376 144.262 221.309 142.403 219.98 140.004C218.706 137.665 218.222 134.977 218.599 132.34C218.672 131.234 219.149 130.193 219.939 129.416C220.345 129.036 220.827 128.748 221.354 128.568C221.88 128.389 222.438 128.324 222.992 128.378H223.07C224.594 128.627 225.974 129.429 226.944 130.631C227.898 131.827 228.731 133.114 229.431 134.474C231.773 138.571 234.566 142.45 236.322 146.832Z" fill="white" stroke="#141A16" stroke-width="0.203962" stroke-linecap="round" stroke-linejoin="round"/>
<path d="M225.5 149.548C225.5 149.548 228.538 147.269 231.072 147.523C233.606 147.778 236.384 149.927 236.784 149.798C237.183 149.668 238.305 148.536 237.926 147.269C237.639 146.101 237.257 144.958 236.784 143.852C236.15 142.46 233.497 141.702 230.963 142.336C228.429 142.969 224.384 145.877 224.513 146.76C224.75 147.719 225.081 148.653 225.5 149.548Z" fill="white" stroke="#141A16" stroke-width="0.203962" stroke-linecap="round" stroke-linejoin="round"/>
<path d="M79.1174 124.805C57.579 124.805 39.9567 142.427 39.9567 163.966C39.9567 185.504 57.579 203.126 79.1174 203.126C100.656 203.126 118.278 185.504 118.278 163.966C118.278 142.427 100.656 124.805 79.1174 124.805ZM79.1174 133.507C85.8618 133.507 92.171 135.9 97.3924 139.599L54.7508 182.241C51.0522 177.019 48.6591 170.71 48.6591 163.966C48.6591 147.214 62.3653 133.507 79.1174 133.507ZM79.1174 194.424C72.3731 194.424 66.0638 192.031 60.8424 188.332L103.484 145.691C107.183 150.912 109.576 157.221 109.576 163.966C109.576 180.718 95.8695 194.424 79.1174 194.424Z" fill="#D50000"/>
</svg>
