<svg width="319" height="238" viewBox="0 0 319 238" fill="none" xmlns="http://www.w3.org/2000/svg">
<path d="M319 208.881H0V209.041H319V208.881Z" fill="#EBEBEB"/>
<path d="M287.036 219.147H265.906V219.306H287.036V219.147Z" fill="#EBEBEB"/>
<path d="M211.318 220.882H205.774V221.041H211.318V220.882Z" fill="#EBEBEB"/>
<path d="M265.268 213.226H253.024V213.386H265.268V213.226Z" fill="#EBEBEB"/>
<path d="M61.0246 214.298H33.4694V214.457H61.0246V214.298Z" fill="#EBEBEB"/>
<path d="M70.7478 214.298H66.7092V214.457H70.7478V214.298Z" fill="#EBEBEB"/>
<path d="M143.646 216.99H83.8778V217.149H143.646V216.99Z" fill="#EBEBEB"/>
<path d="M151.206 180.426H28.0145C27.0495 180.425 26.1245 180.04 25.4427 179.357C24.7609 178.674 24.3779 177.748 24.3779 176.783V3.61108C24.3863 2.65154 24.773 1.73407 25.4539 1.05794C26.1348 0.381816 27.055 0.00164374 28.0145 0H151.206C152.172 0 153.099 0.383813 153.782 1.067C154.465 1.7502 154.849 2.6768 154.849 3.64298V176.783C154.849 177.75 154.465 178.676 153.782 179.359C153.099 180.043 152.172 180.426 151.206 180.426ZM28.0145 0.1276C27.0918 0.129291 26.2074 0.497044 25.5555 1.15014C24.9036 1.80324 24.5374 2.68831 24.5374 3.61108V176.783C24.5374 177.706 24.9036 178.591 25.5555 179.244C26.2074 179.897 27.0918 180.265 28.0145 180.267H151.206C152.129 180.265 153.014 179.898 153.667 179.245C154.32 178.592 154.688 177.707 154.689 176.783V3.61108C154.688 2.68772 154.32 1.80266 153.667 1.14975C153.014 0.496836 152.129 0.129287 151.206 0.1276H28.0145Z" fill="#EBEBEB"/>
<path d="M289.212 180.426H166.014C165.048 180.425 164.123 180.04 163.44 179.358C162.757 178.675 162.373 177.749 162.371 176.783V3.61108C162.381 2.65096 162.769 1.7335 163.451 1.05754C164.133 0.381593 165.054 0.00162581 166.014 0H289.212C290.17 0.00332047 291.089 0.384235 291.768 1.06018C292.448 1.73613 292.834 2.65265 292.842 3.61108V176.783C292.842 177.747 292.46 178.672 291.779 179.355C291.099 180.038 290.176 180.423 289.212 180.426ZM166.014 0.1276C165.091 0.129287 164.206 0.496836 163.553 1.14975C162.9 1.80266 162.532 2.68772 162.53 3.61108V176.783C162.532 177.707 162.9 178.592 163.553 179.245C164.206 179.898 165.091 180.265 166.014 180.267H289.212C290.135 180.265 291.02 179.898 291.673 179.245C292.326 178.592 292.694 177.707 292.695 176.783V3.61108C292.694 2.68772 292.326 1.80266 291.673 1.14975C291.02 0.496836 290.135 0.129287 289.212 0.1276H166.014Z" fill="#EBEBEB"/>
<path d="M274.997 65.7458H162.524V208.167H274.997V65.7458Z" fill="#F0F0F0"/>
<path d="M271.022 70.9329H166.499V101.391H271.022V70.9329Z" fill="#E0E0E0"/>
<path d="M172.439 75.8645H166.499V101.391H172.439V75.8645Z" fill="#EBEBEB"/>
<path d="M201.149 75.8645H195.209V101.391H201.149V75.8645Z" fill="#EBEBEB"/>
<path d="M233.751 75.2183L227.898 76.2273L232.234 101.383L238.088 100.374L233.751 75.2183Z" fill="#EBEBEB"/>
<path d="M179.801 79.2268H173.861V101.391H179.801V79.2268Z" fill="#EBEBEB"/>
<path d="M193.448 79.2268H187.508V101.391H193.448V79.2268Z" fill="#EBEBEB"/>
<path d="M227.894 79.2268H221.954V101.391H227.894V79.2268Z" fill="#EBEBEB"/>
<path d="M208.959 78.4555L203.161 79.7441L207.969 101.38L213.768 100.092L208.959 78.4555Z" fill="#EBEBEB"/>
<path d="M184.931 74.595H181.964V101.385H184.931V74.595Z" fill="#EBEBEB"/>
<path d="M220.244 74.595H217.277V101.385H220.244V74.595Z" fill="#EBEBEB"/>
<path d="M166.505 136.666H271.029V106.208L166.505 106.208V136.666Z" fill="#E0E0E0"/>
<path d="M265.089 136.672H271.029V111.146H265.089V136.672Z" fill="#EBEBEB"/>
<path d="M236.379 136.672H242.319V111.146H236.379V136.672Z" fill="#EBEBEB"/>
<path d="M199.448 135.655L205.302 136.664L209.638 111.508L203.784 110.499L199.448 135.655Z" fill="#EBEBEB"/>
<path d="M257.726 136.666H263.666V114.502H257.726V136.666Z" fill="#EBEBEB"/>
<path d="M244.08 136.666H250.019V114.502H244.08V136.666Z" fill="#EBEBEB"/>
<path d="M209.634 136.666H215.574V114.502H209.634V136.666Z" fill="#EBEBEB"/>
<path d="M223.78 135.368L229.579 136.656L234.387 115.02L228.589 113.732L223.78 135.368Z" fill="#EBEBEB"/>
<path d="M252.591 136.666H255.557V109.876H252.591V136.666Z" fill="#EBEBEB"/>
<path d="M217.284 136.666H220.25V109.876H217.284V136.666Z" fill="#EBEBEB"/>
<path d="M172.439 111.14H166.499V136.666H172.439V111.14Z" fill="#EBEBEB"/>
<path d="M179.801 114.508H173.861V136.672H179.801V114.508Z" fill="#EBEBEB"/>
<path d="M193.448 114.508H187.508V136.672H193.448V114.508Z" fill="#EBEBEB"/>
<path d="M184.931 109.876H181.964V136.666H184.931V109.876Z" fill="#EBEBEB"/>
<path d="M271.022 141.489H166.499V171.947H271.022V141.489Z" fill="#E0E0E0"/>
<path d="M232.436 146.421H226.496V171.947H232.436V146.421Z" fill="#EBEBEB"/>
<path d="M266.27 146.563L260.39 147.573L264.729 172.844L270.61 171.834L266.27 146.563Z" fill="#EBEBEB"/>
<path d="M211.082 149.783H205.142V171.947H211.082V149.783Z" fill="#EBEBEB"/>
<path d="M224.729 149.783H218.789V171.947H224.729V149.783Z" fill="#EBEBEB"/>
<path d="M259.175 149.783H253.235V171.947H259.175V149.783Z" fill="#EBEBEB"/>
<path d="M240.242 149.005L234.444 150.294L239.252 171.93L245.051 170.641L240.242 149.005Z" fill="#EBEBEB"/>
<path d="M216.212 145.151H213.245V171.941H216.212V145.151Z" fill="#EBEBEB"/>
<path d="M251.525 145.151H248.558V171.941H251.525V145.151Z" fill="#EBEBEB"/>
<path d="M197.647 146.57L191.767 147.58L196.106 172.851L201.987 171.841L197.647 146.57Z" fill="#EBEBEB"/>
<path d="M190.864 149.783H184.924V171.947H190.864V149.783Z" fill="#EBEBEB"/>
<path d="M171.931 149.011L166.133 150.3L170.942 171.936L176.74 170.647L171.931 149.011Z" fill="#EBEBEB"/>
<path d="M183.214 145.151H180.248V171.941H183.214V145.151Z" fill="#EBEBEB"/>
<path d="M116.575 57.3118H33.3547V61.5864H116.575V57.3118Z" fill="#E0E0E0"/>
<path d="M40.8511 41.5464H37.1826V57.305H40.8511V41.5464Z" fill="#EBEBEB"/>
<path d="M58.5811 41.5464H54.9126V57.305H58.5811V41.5464Z" fill="#EBEBEB"/>
<path d="M79.0881 41.486L75.4563 42.1096L78.1353 57.7106L81.7671 57.087L79.0881 41.486Z" fill="#EBEBEB"/>
<path d="M45.3937 43.6265H41.7252V57.3116H45.3937V43.6265Z" fill="#EBEBEB"/>
<path d="M53.8217 43.6265H50.1532V57.3116H53.8217V43.6265Z" fill="#EBEBEB"/>
<path d="M75.0926 43.6265H71.4241V57.3116H75.0926V43.6265Z" fill="#EBEBEB"/>
<path d="M63.4003 43.1502L59.8192 43.946L62.7881 57.3052L66.3693 56.5093L63.4003 43.1502Z" fill="#EBEBEB"/>
<path d="M48.5645 40.7683H46.7335V57.3117H48.5645V40.7683Z" fill="#EBEBEB"/>
<path d="M70.3714 40.7683H68.5403V57.3117H70.3714V40.7683Z" fill="#EBEBEB"/>
<path d="M108.588 44.8325H90.7236V57.1651H108.588V44.8325Z" fill="#EBEBEB"/>
<path d="M33.3546 93.5051L116.575 93.5051V89.2305L33.3546 89.2305V93.5051Z" fill="#E0E0E0"/>
<path d="M109.073 89.2307H112.741V73.4721H109.073V89.2307Z" fill="#EBEBEB"/>
<path d="M91.3488 89.2307H95.0173V73.4721H91.3488V89.2307Z" fill="#EBEBEB"/>
<path d="M68.5434 88.6063L72.1586 89.2295L74.8354 73.6999L71.2202 73.0768L68.5434 88.6063Z" fill="#EBEBEB"/>
<path d="M104.53 89.2307H108.198V75.5456H104.53V89.2307Z" fill="#EBEBEB"/>
<path d="M96.1083 89.2307H99.7768V75.5456H96.1083V89.2307Z" fill="#EBEBEB"/>
<path d="M74.8374 89.2307H78.5059V75.5456H74.8374V89.2307Z" fill="#EBEBEB"/>
<path d="M83.5726 88.4317L87.1537 89.2275L90.1227 75.8684L86.5416 75.0725L83.5726 88.4317Z" fill="#EBEBEB"/>
<path d="M101.365 89.2244H103.197V72.681H101.365V89.2244Z" fill="#EBEBEB"/>
<path d="M79.5586 89.2244H81.3896V72.681H79.5586V89.2244Z" fill="#EBEBEB"/>
<path d="M41.336 89.0903H59.2V76.7578H41.336V89.0903Z" fill="#EBEBEB"/>
<path d="M159.5 237.693C227.819 237.693 283.202 234.46 283.202 230.471C283.202 226.482 227.819 223.249 159.5 223.249C91.1814 223.249 35.7982 226.482 35.7982 230.471C35.7982 234.46 91.1814 237.693 159.5 237.693Z" fill="#F5F5F5"/>
<path d="M54.2618 216.62C54.2618 216.62 57.0116 210.623 53.8663 204.709C50.7209 198.794 49.815 197.404 51.8183 196.191C53.8216 194.979 54.7403 200.919 54.7403 200.919C55.7342 198.235 55.8371 195.302 55.0338 192.555C53.643 188.274 52.7689 181.307 54.6702 180.56C56.5714 179.814 55.0338 189.25 56.6862 192.472C57.5257 190.212 58.0683 187.853 58.3004 185.454C58.5301 182.015 58.1728 176.522 59.6785 175.118C61.1841 173.715 62.1411 174.684 60.6674 182.27C59.7779 186.802 59.2869 191.402 59.2 196.019C59.2 196.019 62.4601 186.073 64.6485 185.779C66.8368 185.486 66.8368 188.714 64.9611 191.521C63.0854 194.329 59.4743 199.318 58.881 201.895C58.881 201.895 62.4601 194.411 65.682 196.702C68.9039 198.992 62.8812 203.522 60.1952 205.155C57.5093 206.789 55.6463 217.029 55.6463 217.029L54.2618 216.62Z" fill="#12D96A"/>
<path opacity="0.6" d="M54.2618 216.62C54.2618 216.62 57.0116 210.623 53.8663 204.709C50.7209 198.794 49.815 197.404 51.8183 196.191C53.8216 194.979 54.7403 200.919 54.7403 200.919C55.7342 198.235 55.8371 195.302 55.0338 192.555C53.643 188.274 52.7689 181.307 54.6702 180.56C56.5714 179.814 55.0338 189.25 56.6862 192.472C57.5257 190.212 58.0683 187.853 58.3004 185.454C58.5301 182.015 58.1728 176.522 59.6785 175.118C61.1841 173.715 62.1411 174.684 60.6674 182.27C59.7779 186.802 59.2869 191.402 59.2 196.019C59.2 196.019 62.4601 186.073 64.6485 185.779C66.8368 185.486 66.8368 188.714 64.9611 191.521C63.0854 194.329 59.4743 199.318 58.881 201.895C58.881 201.895 62.4601 194.411 65.682 196.702C68.9039 198.992 62.8812 203.522 60.1952 205.155C57.5093 206.789 55.6463 217.029 55.6463 217.029L54.2618 216.62Z" fill="white"/>
<path d="M56.431 219.083C56.431 219.083 53.7514 213.041 56.9669 207.178C60.1825 201.315 61.1076 199.93 59.117 198.686C57.1264 197.442 56.1439 203.375 56.1439 203.375C55.184 200.678 55.1169 197.743 55.9525 195.005C57.3944 190.749 58.3578 183.795 56.4629 183.017C54.5681 182.238 55.9908 191.706 54.3001 194.896C53.4906 192.632 52.976 190.274 52.7689 187.878C52.5839 184.44 53.005 178.946 51.4929 177.53C49.9808 176.114 49.0366 177.058 50.4211 184.663C51.2449 189.206 51.6718 193.813 51.6971 198.431C51.6971 198.431 48.5517 188.44 46.3634 188.114C44.175 187.789 44.1431 191.011 45.987 193.856C47.8308 196.702 51.3781 201.736 51.9395 204.32C51.9395 204.32 48.4496 196.778 45.2022 199.024C41.9548 201.27 47.9265 205.883 50.5933 207.561C53.2602 209.239 55.0402 219.472 55.0402 219.472L56.431 219.083Z" fill="#12D96A"/>
<path opacity="0.7" d="M56.431 219.083C56.431 219.083 53.7514 213.041 56.9669 207.178C60.1825 201.315 61.1076 199.93 59.117 198.686C57.1264 197.442 56.1439 203.375 56.1439 203.375C55.184 200.678 55.1169 197.743 55.9525 195.005C57.3944 190.749 58.3578 183.795 56.4629 183.017C54.5681 182.238 55.9908 191.706 54.3001 194.896C53.4906 192.632 52.976 190.274 52.7689 187.878C52.5839 184.44 53.005 178.946 51.4929 177.53C49.9808 176.114 49.0366 177.058 50.4211 184.663C51.2449 189.206 51.6718 193.813 51.6971 198.431C51.6971 198.431 48.5517 188.44 46.3634 188.114C44.175 187.789 44.1431 191.011 45.987 193.856C47.8308 196.702 51.3781 201.736 51.9395 204.32C51.9395 204.32 48.4496 196.778 45.2022 199.024C41.9548 201.27 47.9265 205.883 50.5933 207.561C53.2602 209.239 55.0402 219.472 55.0402 219.472L56.431 219.083Z" fill="white"/>
<path d="M44.0793 214.776H66.1988L64.4124 230.605H45.8721L44.0793 214.776Z" fill="#12D96A"/>
<path d="M244.935 206.298H236.054V230.605H244.935V206.298Z" fill="#12D96A"/>
<path opacity="0.3" d="M244.935 206.298H242.376V230.605H244.935V206.298Z" fill="black"/>
<path d="M263.768 218.566H244.437V230.605H263.768V218.566Z" fill="#12D96A"/>
<path opacity="0.4" d="M256.476 218.566H244.437V230.605H256.476V218.566Z" fill="white"/>
<path d="M196.823 200.339H180.503V230.605H196.823V200.339Z" fill="#12D96A"/>
<path opacity="0.3" d="M196.823 200.339H187.157V230.605H196.823V200.339Z" fill="black"/>
<path d="M222.343 200.339H206.023V230.605H222.343V200.339Z" fill="#12D96A"/>
<path opacity="0.3" d="M222.343 200.339H212.677V230.605H222.343V200.339Z" fill="black"/>
<path d="M206.074 186.271H193.952L171.909 200.338H184.031H215.995H228.117L206.074 186.271Z" fill="#12D96A"/>
<path opacity="0.4" d="M193.952 186.271L171.909 200.338H184.031H215.995L193.952 186.271Z" fill="white"/>
<path d="M231.989 224.149C231.982 225.788 231.35 227.363 230.224 228.554C229.097 229.745 227.559 230.463 225.923 230.562C224.287 230.661 222.674 230.134 221.412 229.088C220.15 228.041 219.333 226.554 219.127 224.927C219.091 224.669 219.074 224.409 219.076 224.149C219.076 222.924 219.424 221.725 220.079 220.69C220.735 219.656 221.671 218.829 222.779 218.307C223.886 217.784 225.12 217.588 226.335 217.74C227.55 217.892 228.697 218.387 229.642 219.166C230.376 219.772 230.967 220.533 231.373 221.395C231.779 222.256 231.989 223.197 231.989 224.149Z" fill="#12D96A"/>
<path opacity="0.4" d="M230.248 221.788C230.247 223.096 229.82 224.368 229.031 225.41C228.242 226.453 227.134 227.209 225.875 227.565C224.617 227.92 223.277 227.854 222.059 227.378C220.841 226.902 219.811 226.042 219.127 224.927C219.091 224.669 219.074 224.409 219.076 224.149C219.076 222.924 219.424 221.725 220.079 220.69C220.735 219.656 221.671 218.829 222.779 218.307C223.886 217.784 225.12 217.588 226.335 217.74C227.55 217.892 228.697 218.387 229.642 219.166C230.04 219.983 230.247 220.879 230.248 221.788Z" fill="white"/>
<path d="M165.574 20.0396H143.652C142.419 20.0396 141.419 21.0393 141.419 22.2726V44.1942C141.419 45.4275 142.419 46.4272 143.652 46.4272H165.574C166.807 46.4272 167.807 45.4275 167.807 44.1942V22.2726C167.807 21.0393 166.807 20.0396 165.574 20.0396Z" fill="#263238"/>
<path d="M194.22 20.0396H172.298C171.065 20.0396 170.065 21.0393 170.065 22.2726V44.1942C170.065 45.4275 171.065 46.4272 172.298 46.4272H194.22C195.453 46.4272 196.453 45.4275 196.453 44.1942V22.2726C196.453 21.0393 195.453 20.0396 194.22 20.0396Z" fill="#263238"/>
<path d="M136.928 20.0396H115.006C113.773 20.0396 112.773 21.0393 112.773 22.2726V44.1942C112.773 45.4275 113.773 46.4272 115.006 46.4272H136.928C138.161 46.4272 139.161 45.4275 139.161 44.1942V22.2726C139.161 21.0393 138.161 20.0396 136.928 20.0396Z" fill="#263238"/>
<path d="M121.858 25.9602L118.132 28.576V40.5194H130.075L133.808 37.9036V25.9602H121.858Z" fill="#12D96A"/>
<path opacity="0.6" d="M118.132 28.576L121.858 25.9602H133.808L130.075 28.576H118.132Z" fill="white"/>
<path opacity="0.3" d="M133.808 25.9602V37.9036L130.075 40.5194V28.576L133.808 25.9602Z" fill="black"/>
<path opacity="0.2" d="M121.858 25.9602L118.132 28.576V40.5194H130.075L133.808 37.9036V25.9602H121.858Z" fill="white"/>
<path d="M286.003 146.102L286.2 146.013H109.666L109.468 146.102H109.238L36.1235 176.681H36.366L36.1682 176.764H212.684L212.888 176.681H213.092L286.232 146.102H286.003ZM275.386 150.383H259.947L269.995 146.185H285.435L275.386 150.383ZM126.407 159.315H141.847L131.804 163.513H116.365L126.407 159.315ZM115.765 163.513H100.325L110.374 159.289H125.814L115.765 163.513ZM190.354 159.149H174.914L184.963 154.945H200.402L190.354 159.149ZM200.97 154.919H216.41L206.367 159.124H190.953L200.97 154.919ZM158.454 159.289H173.893L163.851 163.488H148.431L158.454 159.289ZM147.812 163.488H132.372L142.414 159.289H157.86L147.812 163.488ZM174.487 159.289H189.933L179.916 163.488H164.476L174.487 159.289ZM174.295 159.124H158.862L168.904 154.919H184.382L174.295 159.124ZM158.256 159.124H142.816L152.865 154.919H168.304L158.256 159.124ZM142.223 159.124H126.783L136.825 154.919H152.265L142.223 159.124ZM131.377 163.66L121.335 167.858H105.908L115.956 163.66H131.377ZM131.97 163.66H147.442L137.393 167.858H121.954L131.97 163.66ZM148.01 163.66H163.449L153.401 167.858H137.961L148.01 163.66ZM164.043 163.66H179.482L169.44 167.858H154L164.043 163.66ZM180.082 163.66H195.521L185.473 167.858H170.033L180.082 163.66ZM180.477 163.488L190.526 159.289H205.966L195.923 163.488H180.477ZM206.559 159.289H222.024L211.975 163.488H196.536L206.559 159.289ZM206.961 159.124L217.009 154.919H232.449L222.4 159.124H206.961ZM217.405 154.753L227.479 150.568H242.919L232.87 154.753H217.405ZM216.812 154.753H201.372L211.44 150.568H226.879L216.812 154.753ZM200.772 154.753H185.333L195.407 150.568H210.846L200.772 154.753ZM184.739 154.753H169.325L179.367 150.568H194.807L184.739 154.753ZM168.706 154.753H153.286L163.328 150.568H178.768L168.706 154.753ZM152.667 154.753H137.227L147.295 150.568H162.741L152.667 154.753ZM136.634 154.753H121.22L131.262 150.568H146.702L136.634 154.753ZM136.232 154.919L126.184 159.124H110.744L120.793 154.919H136.232ZM110.151 159.124H94.7111L104.753 154.919H120.193L110.151 159.124ZM109.749 159.289L99.7066 163.488H84.267L94.3092 159.289H109.749ZM99.3047 163.66L89.32 167.858H73.8421L83.8906 163.66H99.3047ZM99.898 163.66H115.344L105.296 167.858H89.8559L99.898 163.66ZM104.894 168.024L94.877 172.26H79.4374L89.4795 168.056L104.894 168.024ZM105.493 168.024H120.933L110.91 172.26H95.4703L105.493 168.024ZM121.526 168.024H136.966L126.962 172.26H111.522L121.526 168.024ZM137.566 168.024H153.005L142.982 172.26H127.543L137.566 168.024ZM153.598 168.024H169.07L159.021 172.26H143.582L153.598 168.024ZM169.638 168.024H185.077L175.054 172.26H159.615L169.638 168.024ZM185.671 168.024H201.11L191.094 172.26H175.654L185.671 168.024ZM186.073 167.858L196.115 163.66H211.554L201.512 167.858H186.073ZM212.154 163.66H227.594L217.558 167.858H202.118L212.154 163.66ZM212.55 163.488L222.598 159.289H238.038L227.996 163.488H212.55ZM222.994 159.124L233.042 154.919H248.482L238.44 159.124H222.994ZM233.444 154.753L243.512 150.568H258.951L248.909 154.772L233.444 154.753ZM243.888 150.383L253.93 146.185H269.376L259.328 150.383H243.888ZM243.289 150.383H227.849L237.897 146.185H253.337L243.289 150.383ZM227.256 150.383H211.816L221.858 146.185H237.336L227.256 150.383ZM211.223 150.383H195.802L205.851 146.185H221.29L211.223 150.383ZM195.183 150.383H179.744L189.786 146.185H205.232L195.183 150.383ZM179.15 150.383H163.73L173.778 146.185H189.218L179.15 150.383ZM163.111 150.383H147.697L157.745 146.185H173.185L163.111 150.383ZM147.078 150.383H131.639L141.681 146.185H157.12L147.078 150.383ZM131.039 150.383H115.599L125.686 146.185H141.126L131.039 150.383ZM130.643 150.549L120.595 154.753H105.155L115.223 150.568L130.643 150.549ZM104.562 154.753H89.1413L99.1898 150.568H114.629L104.562 154.753ZM104.16 154.919L94.1114 159.124H78.6718L88.7203 154.919H104.16ZM93.7158 159.289L83.6673 163.488H68.266L78.3145 159.289H93.7158ZM83.2717 163.66L73.2232 167.858H57.8092L67.8513 163.66H83.2717ZM72.8213 168.024L62.8047 172.26H47.3651L57.42 168.024H72.8213ZM73.421 168.024H88.8606L78.8376 172.26H63.398L73.421 168.024ZM78.4166 172.394L68.3936 176.598H52.954L63.0025 172.394H78.4166ZM79.0099 172.394H94.4495L84.4074 176.598H68.9678L79.0099 172.394ZM95.0492 172.394H110.489L100.44 176.598H85.0007L95.0492 172.394ZM111.082 172.394H126.522L116.48 176.598H101.059L111.082 172.394ZM127.115 172.394H142.561L132.513 176.598H117.073L127.115 172.394ZM143.154 172.394H158.594L148.552 176.598H133.131L143.154 172.394ZM159.187 172.394H174.633L164.604 176.598H149.164L159.187 172.394ZM175.227 172.394H190.666L180.624 176.598H165.204L175.227 172.394ZM191.26 172.394H206.712L196.663 176.598H181.224L191.26 172.394ZM191.662 172.228L201.704 168.024H217.175L207.127 172.26L191.662 172.228ZM217.743 168.024H233.183L223.166 172.26H207.72L217.743 168.024ZM218.145 167.858L228.187 163.66H243.627L233.585 167.858H218.145ZM228.589 163.488L238.631 159.289H254.071L244.029 163.488H228.589ZM239.033 159.124L249.075 154.919H264.521L254.473 159.124H239.033ZM249.477 154.753L259.551 150.568H274.978L264.93 154.772L249.477 154.753ZM125.048 146.185L115.006 150.383H99.5918L109.634 146.185H125.048ZM46.9632 172.394H62.4028L52.3606 176.598H36.921L46.9632 172.394ZM197.276 176.598L207.35 172.394H222.79L212.741 176.598H197.276Z" fill="#12D96A"/>
<g opacity="0.4">
<path d="M286.003 146.102L286.2 146.013H109.666L109.468 146.102H109.238L36.1235 176.681H36.366L36.1682 176.764H212.684L212.888 176.681H213.092L286.232 146.102H286.003ZM275.386 150.383H259.947L269.995 146.185H285.435L275.386 150.383ZM126.407 159.315H141.847L131.804 163.513H116.365L126.407 159.315ZM115.765 163.513H100.325L110.374 159.289H125.814L115.765 163.513ZM190.354 159.149H174.914L184.963 154.945H200.402L190.354 159.149ZM200.97 154.919H216.41L206.367 159.124H190.953L200.97 154.919ZM158.454 159.289H173.893L163.851 163.488H148.431L158.454 159.289ZM147.812 163.488H132.372L142.414 159.289H157.86L147.812 163.488ZM174.487 159.289H189.933L179.916 163.488H164.476L174.487 159.289ZM174.295 159.124H158.862L168.904 154.919H184.382L174.295 159.124ZM158.256 159.124H142.816L152.865 154.919H168.304L158.256 159.124ZM142.223 159.124H126.783L136.825 154.919H152.265L142.223 159.124ZM131.377 163.66L121.335 167.858H105.908L115.956 163.66H131.377ZM131.97 163.66H147.442L137.393 167.858H121.954L131.97 163.66ZM148.01 163.66H163.449L153.401 167.858H137.961L148.01 163.66ZM164.043 163.66H179.482L169.44 167.858H154L164.043 163.66ZM180.082 163.66H195.521L185.473 167.858H170.033L180.082 163.66ZM180.477 163.488L190.526 159.289H205.966L195.923 163.488H180.477ZM206.559 159.289H222.024L211.975 163.488H196.536L206.559 159.289ZM206.961 159.124L217.009 154.919H232.449L222.4 159.124H206.961ZM217.405 154.753L227.479 150.568H242.919L232.87 154.753H217.405ZM216.812 154.753H201.372L211.44 150.568H226.879L216.812 154.753ZM200.772 154.753H185.333L195.407 150.568H210.846L200.772 154.753ZM184.739 154.753H169.325L179.367 150.568H194.807L184.739 154.753ZM168.706 154.753H153.286L163.328 150.568H178.768L168.706 154.753ZM152.667 154.753H137.227L147.295 150.568H162.741L152.667 154.753ZM136.634 154.753H121.22L131.262 150.568H146.702L136.634 154.753ZM136.232 154.919L126.184 159.124H110.744L120.793 154.919H136.232ZM110.151 159.124H94.7111L104.753 154.919H120.193L110.151 159.124ZM109.749 159.289L99.7066 163.488H84.267L94.3092 159.289H109.749ZM99.3047 163.66L89.32 167.858H73.8421L83.8906 163.66H99.3047ZM99.898 163.66H115.344L105.296 167.858H89.8559L99.898 163.66ZM104.894 168.024L94.877 172.26H79.4374L89.4795 168.056L104.894 168.024ZM105.493 168.024H120.933L110.91 172.26H95.4703L105.493 168.024ZM121.526 168.024H136.966L126.962 172.26H111.522L121.526 168.024ZM137.566 168.024H153.005L142.982 172.26H127.543L137.566 168.024ZM153.598 168.024H169.07L159.021 172.26H143.582L153.598 168.024ZM169.638 168.024H185.077L175.054 172.26H159.615L169.638 168.024ZM185.671 168.024H201.11L191.094 172.26H175.654L185.671 168.024ZM186.073 167.858L196.115 163.66H211.554L201.512 167.858H186.073ZM212.154 163.66H227.594L217.558 167.858H202.118L212.154 163.66ZM212.55 163.488L222.598 159.289H238.038L227.996 163.488H212.55ZM222.994 159.124L233.042 154.919H248.482L238.44 159.124H222.994ZM233.444 154.753L243.512 150.568H258.951L248.909 154.772L233.444 154.753ZM243.888 150.383L253.93 146.185H269.376L259.328 150.383H243.888ZM243.289 150.383H227.849L237.897 146.185H253.337L243.289 150.383ZM227.256 150.383H211.816L221.858 146.185H237.336L227.256 150.383ZM211.223 150.383H195.802L205.851 146.185H221.29L211.223 150.383ZM195.183 150.383H179.744L189.786 146.185H205.232L195.183 150.383ZM179.15 150.383H163.73L173.778 146.185H189.218L179.15 150.383ZM163.111 150.383H147.697L157.745 146.185H173.185L163.111 150.383ZM147.078 150.383H131.639L141.681 146.185H157.12L147.078 150.383ZM131.039 150.383H115.599L125.686 146.185H141.126L131.039 150.383ZM130.643 150.549L120.595 154.753H105.155L115.223 150.568L130.643 150.549ZM104.562 154.753H89.1413L99.1898 150.568H114.629L104.562 154.753ZM104.16 154.919L94.1114 159.124H78.6718L88.7203 154.919H104.16ZM93.7158 159.289L83.6673 163.488H68.266L78.3145 159.289H93.7158ZM83.2717 163.66L73.2232 167.858H57.8092L67.8513 163.66H83.2717ZM72.8213 168.024L62.8047 172.26H47.3651L57.42 168.024H72.8213ZM73.421 168.024H88.8606L78.8376 172.26H63.398L73.421 168.024ZM78.4166 172.394L68.3936 176.598H52.954L63.0025 172.394H78.4166ZM79.0099 172.394H94.4495L84.4074 176.598H68.9678L79.0099 172.394ZM95.0492 172.394H110.489L100.44 176.598H85.0007L95.0492 172.394ZM111.082 172.394H126.522L116.48 176.598H101.059L111.082 172.394ZM127.115 172.394H142.561L132.513 176.598H117.073L127.115 172.394ZM143.154 172.394H158.594L148.552 176.598H133.131L143.154 172.394ZM159.187 172.394H174.633L164.604 176.598H149.164L159.187 172.394ZM175.227 172.394H190.666L180.624 176.598H165.204L175.227 172.394ZM191.26 172.394H206.712L196.663 176.598H181.224L191.26 172.394ZM191.662 172.228L201.704 168.024H217.175L207.127 172.26L191.662 172.228ZM217.743 168.024H233.183L223.166 172.26H207.72L217.743 168.024ZM218.145 167.858L228.187 163.66H243.627L233.585 167.858H218.145ZM228.589 163.488L238.631 159.289H254.071L244.029 163.488H228.589ZM239.033 159.124L249.075 154.919H264.521L254.473 159.124H239.033ZM249.477 154.753L259.551 150.568H274.978L264.93 154.772L249.477 154.753ZM125.048 146.185L115.006 150.383H99.5918L109.634 146.185H125.048ZM46.9632 172.394H62.4028L52.3606 176.598H36.921L46.9632 172.394ZM197.276 176.598L207.35 172.394H222.79L212.741 176.598H197.276Z" fill="white"/>
</g>
<path d="M228.729 22.5916C224.397 22.5903 220.162 23.8738 216.559 26.2797C212.957 28.6856 210.148 32.1059 208.489 36.1079C206.831 40.11 206.396 44.5141 207.241 48.7632C208.085 53.0123 210.17 56.9155 213.233 59.9793C216.296 63.043 220.199 65.1297 224.448 65.9753C228.697 66.8209 233.101 66.3876 237.103 64.73C241.106 63.0724 244.527 60.2651 246.934 56.6632C249.341 53.0612 250.626 48.8263 250.626 44.4941C250.619 38.6884 248.31 33.1222 244.205 29.0164C240.101 24.9105 234.535 22.6 228.729 22.5916ZM249.337 43.8561H231.913L247.991 37.1316C248.812 39.2822 249.267 41.5551 249.337 43.8561ZM247.493 35.9513L229.367 43.5307V23.8867C233.212 24.0106 236.946 25.2056 240.149 27.3372C243.351 29.4687 245.895 32.4521 247.493 35.9513ZM228.091 23.8867V43.8561H208.128C208.296 38.6141 210.453 33.6325 214.161 29.9234C217.869 26.2143 222.849 24.0559 228.091 23.8867ZM225.539 45.1321L209.462 51.8566C208.638 49.7067 208.183 47.4333 208.116 45.1321H225.539ZM209.959 53.0305L228.079 45.4511V65.076C224.238 64.9525 220.509 63.7595 217.31 61.6314C214.111 59.5034 211.57 56.5246 209.972 53.0305H209.959ZM229.367 65.076V45.1321H249.337C249.163 50.3706 247.002 55.3468 243.294 59.0507C239.585 62.7546 234.606 64.9087 229.367 65.076Z" fill="#12D96A"/>
<g opacity="0.6">
<path d="M228.729 22.5916C224.397 22.5903 220.162 23.8738 216.559 26.2797C212.957 28.6856 210.148 32.1059 208.489 36.1079C206.831 40.11 206.396 44.5141 207.241 48.7632C208.085 53.0123 210.17 56.9155 213.233 59.9793C216.296 63.043 220.199 65.1297 224.448 65.9753C228.697 66.8209 233.101 66.3876 237.103 64.73C241.106 63.0724 244.527 60.2651 246.934 56.6632C249.341 53.0612 250.626 48.8263 250.626 44.4941C250.619 38.6884 248.31 33.1222 244.205 29.0164C240.101 24.9105 234.535 22.6 228.729 22.5916ZM249.337 43.8561H231.913L247.991 37.1316C248.812 39.2822 249.267 41.5551 249.337 43.8561ZM247.493 35.9513L229.367 43.5307V23.8867C233.212 24.0106 236.946 25.2056 240.149 27.3372C243.351 29.4687 245.895 32.4521 247.493 35.9513ZM228.091 23.8867V43.8561H208.128C208.296 38.6141 210.453 33.6325 214.161 29.9234C217.869 26.2143 222.849 24.0559 228.091 23.8867ZM225.539 45.1321L209.462 51.8566C208.638 49.7067 208.183 47.4333 208.116 45.1321H225.539ZM209.959 53.0305L228.079 45.4511V65.076C224.238 64.9525 220.509 63.7595 217.31 61.6314C214.111 59.5034 211.57 56.5246 209.972 53.0305H209.959ZM229.367 65.076V45.1321H249.337C249.163 50.3706 247.002 55.3468 243.294 59.0507C239.585 62.7546 234.606 64.9087 229.367 65.076Z" fill="white"/>
</g>
<path d="M228.729 20.0459L227.236 24.2376H230.229L228.729 20.0459Z" fill="#12D96A"/>
<path d="M253.177 44.4942L248.986 42.9949V45.9871L253.177 44.4942Z" fill="#12D96A"/>
<path d="M206.393 53.9746L210.84 53.6939L209.653 50.9377L206.393 53.9746Z" fill="#12D96A"/>
<path d="M209.117 53.3369C208.967 53.3404 208.821 53.291 208.704 53.1975C208.587 53.104 208.507 52.9723 208.477 52.8254C208.447 52.6786 208.47 52.526 208.542 52.3944C208.613 52.2628 208.729 52.1605 208.868 52.1056L228.487 43.9009C228.643 43.8357 228.819 43.8354 228.976 43.9C229.133 43.9647 229.258 44.0889 229.323 44.2454C229.388 44.4019 229.388 44.5779 229.324 44.7346C229.259 44.8914 229.135 45.016 228.978 45.0812L209.36 53.2859C209.283 53.3186 209.201 53.3359 209.117 53.3369Z" fill="#12D96A"/>
<path d="M228.729 45.1321C228.56 45.1321 228.398 45.0648 228.278 44.9452C228.159 44.8255 228.091 44.6633 228.091 44.4941V23.2359C228.091 23.0667 228.159 22.9044 228.278 22.7848C228.398 22.6651 228.56 22.5979 228.729 22.5979C228.899 22.5979 229.061 22.6651 229.181 22.7848C229.3 22.9044 229.367 23.0667 229.367 23.2359V44.4941C229.367 44.6633 229.3 44.8255 229.181 44.9452C229.061 45.0648 228.899 45.1321 228.729 45.1321Z" fill="#12D96A"/>
<path d="M249.988 45.1322H228.729C228.56 45.1322 228.398 45.065 228.278 44.9453C228.159 44.8257 228.091 44.6634 228.091 44.4942C228.091 44.325 228.159 44.1627 228.278 44.0431C228.398 43.9234 228.56 43.8562 228.729 43.8562H249.988C250.157 43.8562 250.319 43.9234 250.439 44.0431C250.558 44.1627 250.626 44.325 250.626 44.4942C250.626 44.6634 250.558 44.8257 250.439 44.9453C250.319 45.065 250.157 45.1322 249.988 45.1322Z" fill="#12D96A"/>
<path d="M282.436 101.276H257.171C256.185 101.276 255.385 102.076 255.385 103.063V106.865C255.385 107.852 256.185 108.651 257.171 108.651H282.436C283.423 108.651 284.223 107.852 284.223 106.865V103.063C284.223 102.076 283.423 101.276 282.436 101.276Z" fill="#12D96A"/>
<path opacity="0.4" d="M282.436 101.276H257.171C256.185 101.276 255.385 102.076 255.385 103.063V106.865C255.385 107.852 256.185 108.651 257.171 108.651H282.436C283.423 108.651 284.223 107.852 284.223 106.865V103.063C284.223 102.076 283.423 101.276 282.436 101.276Z" fill="white"/>
<path d="M282.436 109.819H257.171C256.185 109.819 255.385 110.619 255.385 111.605V115.408C255.385 116.394 256.185 117.194 257.171 117.194H282.436C283.423 117.194 284.223 116.394 284.223 115.408V111.605C284.223 110.619 283.423 109.819 282.436 109.819Z" fill="#12D96A"/>
<path opacity="0.4" d="M282.436 109.819H257.171C256.185 109.819 255.385 110.619 255.385 111.605V115.408C255.385 116.394 256.185 117.194 257.171 117.194H282.436C283.423 117.194 284.223 116.394 284.223 115.408V111.605C284.223 110.619 283.423 109.819 282.436 109.819Z" fill="white"/>
<path d="M282.436 118.362H257.171C256.185 118.362 255.385 119.161 255.385 120.148V123.95C255.385 124.937 256.185 125.737 257.171 125.737H282.436C283.423 125.737 284.223 124.937 284.223 123.95V120.148C284.223 119.161 283.423 118.362 282.436 118.362Z" fill="#12D96A"/>
<path opacity="0.4" d="M282.436 118.362H257.171C256.185 118.362 255.385 119.161 255.385 120.148V123.95C255.385 124.937 256.185 125.737 257.171 125.737H282.436C283.423 125.737 284.223 124.937 284.223 123.95V120.148C284.223 119.161 283.423 118.362 282.436 118.362Z" fill="white"/>
<path d="M282.436 126.905H257.171C256.185 126.905 255.385 127.704 255.385 128.691V132.493C255.385 133.48 256.185 134.28 257.171 134.28H282.436C283.423 134.28 284.223 133.48 284.223 132.493V128.691C284.223 127.704 283.423 126.905 282.436 126.905Z" fill="#12D96A"/>
<path opacity="0.4" d="M282.436 126.905H257.171C256.185 126.905 255.385 127.704 255.385 128.691V132.493C255.385 133.48 256.185 134.28 257.171 134.28H282.436C283.423 134.28 284.223 133.48 284.223 132.493V128.691C284.223 127.704 283.423 126.905 282.436 126.905Z" fill="white"/>
<path d="M282.436 135.448H257.171C256.185 135.448 255.385 136.247 255.385 137.234V141.036C255.385 142.023 256.185 142.823 257.171 142.823H282.436C283.423 142.823 284.223 142.023 284.223 141.036V137.234C284.223 136.247 283.423 135.448 282.436 135.448Z" fill="#12D96A"/>
<path opacity="0.4" d="M282.436 135.448H257.171C256.185 135.448 255.385 136.247 255.385 137.234V141.036C255.385 142.023 256.185 142.823 257.171 142.823H282.436C283.423 142.823 284.223 142.023 284.223 141.036V137.234C284.223 136.247 283.423 135.448 282.436 135.448Z" fill="white"/>
<path d="M283.221 20.0396H263.201C262.651 20.0396 262.205 20.4852 262.205 21.0348V82.0723C262.205 82.622 262.651 83.0676 263.201 83.0676H283.221C283.771 83.0676 284.216 82.622 284.216 82.0723V21.0348C284.216 20.4852 283.771 20.0396 283.221 20.0396Z" fill="#12D96A"/>
<path opacity="0.4" d="M271.546 22.5342H265.67C265.183 22.5342 264.789 22.9284 264.789 23.4146V29.2906C264.789 29.7769 265.183 30.171 265.67 30.171H271.546C272.032 30.171 272.426 29.7769 272.426 29.2906V23.4146C272.426 22.9284 272.032 22.5342 271.546 22.5342Z" fill="white"/>
<path opacity="0.4" d="M280.758 22.5342H274.882C274.396 22.5342 274.002 22.9284 274.002 23.4146V29.2906C274.002 29.7769 274.396 30.171 274.882 30.171H280.758C281.245 30.171 281.639 29.7769 281.639 29.2906V23.4146C281.639 22.9284 281.245 22.5342 280.758 22.5342Z" fill="white"/>
<path opacity="0.4" d="M271.546 31.4663H265.67C265.183 31.4663 264.789 31.8605 264.789 32.3467V38.2227C264.789 38.709 265.183 39.1032 265.67 39.1032H271.546C272.032 39.1032 272.426 38.709 272.426 38.2227V32.3467C272.426 31.8605 272.032 31.4663 271.546 31.4663Z" fill="white"/>
<path opacity="0.4" d="M280.758 31.4663H274.882C274.396 31.4663 274.002 31.8605 274.002 32.3467V38.2227C274.002 38.709 274.396 39.1032 274.882 39.1032H280.758C281.245 39.1032 281.639 38.709 281.639 38.2227V32.3467C281.639 31.8605 281.245 31.4663 280.758 31.4663Z" fill="white"/>
<path opacity="0.4" d="M271.546 40.3982H265.67C265.183 40.3982 264.789 40.7924 264.789 41.2786V47.1546C264.789 47.6409 265.183 48.035 265.67 48.035H271.546C272.032 48.035 272.426 47.6409 272.426 47.1546V41.2786C272.426 40.7924 272.032 40.3982 271.546 40.3982Z" fill="white"/>
<path opacity="0.4" d="M280.758 40.3982H274.882C274.396 40.3982 274.002 40.7924 274.002 41.2786V47.1546C274.002 47.6409 274.396 48.035 274.882 48.035H280.758C281.245 48.035 281.639 47.6409 281.639 47.1546V41.2786C281.639 40.7924 281.245 40.3982 280.758 40.3982Z" fill="white"/>
<path opacity="0.4" d="M271.546 49.3301H265.67C265.183 49.3301 264.789 49.7243 264.789 50.2105V56.0865C264.789 56.5727 265.183 56.9669 265.67 56.9669H271.546C272.032 56.9669 272.426 56.5727 272.426 56.0865V50.2105C272.426 49.7243 272.032 49.3301 271.546 49.3301Z" fill="white"/>
<path opacity="0.4" d="M280.758 49.3301H274.882C274.396 49.3301 274.002 49.7243 274.002 50.2105V56.0865C274.002 56.5727 274.396 56.9669 274.882 56.9669H280.758C281.245 56.9669 281.639 56.5727 281.639 56.0865V50.2105C281.639 49.7243 281.245 49.3301 280.758 49.3301Z" fill="white"/>
<path opacity="0.4" d="M271.546 72.936H265.67C265.183 72.936 264.789 73.3302 264.789 73.8165V79.6925C264.789 80.1787 265.183 80.5729 265.67 80.5729H271.546C272.032 80.5729 272.426 80.1787 272.426 79.6925V73.8165C272.426 73.3302 272.032 72.936 271.546 72.936Z" fill="white"/>
<path opacity="0.4" d="M280.758 72.936H274.882C274.396 72.936 274.002 73.3302 274.002 73.8165V79.6925C274.002 80.1787 274.396 80.5729 274.882 80.5729H280.758C281.245 80.5729 281.639 80.1787 281.639 79.6925V73.8165C281.639 73.3302 281.245 72.936 280.758 72.936Z" fill="white"/>
<path opacity="0.4" d="M271.546 64.0042H265.67C265.183 64.0042 264.789 64.3983 264.789 64.8846V70.7606C264.789 71.2468 265.183 71.641 265.67 71.641H271.546C272.032 71.641 272.426 71.2468 272.426 70.7606V64.8846C272.426 64.3983 272.032 64.0042 271.546 64.0042Z" fill="white"/>
<path opacity="0.4" d="M280.758 64.0042H274.882C274.396 64.0042 274.002 64.3983 274.002 64.8846V70.7606C274.002 71.2468 274.396 71.641 274.882 71.641H280.758C281.245 71.641 281.639 71.2468 281.639 70.7606V64.8846C281.639 64.3983 281.245 64.0042 280.758 64.0042Z" fill="white"/>
<path d="M150.511 25.9602L146.778 28.576V40.5194H158.722L162.454 37.9036V25.9602H150.511Z" fill="#12D96A"/>
<path opacity="0.2" d="M158.722 28.5759H146.778V40.5193H158.722V28.5759Z" fill="white"/>
<path opacity="0.2" d="M162.448 25.9539H150.504V37.8972H162.448V25.9539Z" fill="white"/>
<path opacity="0.6" d="M146.778 28.576L150.511 25.9602H162.454L158.722 28.576H146.778Z" fill="white"/>
<path opacity="0.3" d="M162.454 25.9602V37.9036L158.722 40.5194V28.576L162.454 25.9602Z" fill="black"/>
<path opacity="0.3" d="M146.778 40.5194L150.511 37.9036H162.454L158.722 40.5194H146.778Z" fill="black"/>
<path opacity="0.2" d="M191.4 25.8963C191.4 25.8963 191.4 25.8963 191.4 25.8581C191.387 25.8302 191.37 25.8044 191.349 25.7815L191.311 25.7432H191.272C191.236 25.7366 191.2 25.7366 191.164 25.7432H191.119H179.15C179.082 25.7434 179.016 25.7634 178.959 25.8006L175.233 28.4228L175.188 28.4802C175.157 28.5239 175.135 28.574 175.125 28.627C175.125 28.627 175.125 28.627 175.125 28.6716V40.615C175.125 40.6533 175.125 40.6788 175.163 40.7107C175.201 40.7426 175.163 40.7809 175.163 40.8064C175.192 40.846 175.229 40.8786 175.272 40.9018C175.315 40.925 175.363 40.9382 175.412 40.9404H187.355C187.426 40.9388 187.495 40.9166 187.553 40.8766L191.279 38.2608L191.311 38.2289C191.362 38.1703 191.391 38.096 191.394 38.0183V25.9601C191.394 25.9601 191.4 25.9219 191.4 25.8963ZM178.819 26.6045V28.2378H176.49L178.819 26.6045ZM175.763 28.9141H178.819V37.7249L175.763 39.8685V28.9141ZM187.036 40.1939H176.49L179.259 38.2799H187.036V40.1939ZM187.036 37.5781H179.488V28.9141H187.036V37.5781ZM187.266 28.2506H179.488V26.2919H190.035L189.001 27.0192L187.266 28.2506ZM187.706 39.8813V38.248H190.035L187.706 39.8813ZM190.762 37.5781H187.706V28.7482L188.905 27.9124L190.762 26.6364V37.5781Z" fill="white"/>
<path d="M191.432 25.9601C191.432 25.9601 191.432 25.9219 191.432 25.8963C191.432 25.8708 191.432 25.8963 191.432 25.8581C191.419 25.8302 191.401 25.8044 191.381 25.7815L191.343 25.7432H191.304C191.268 25.7366 191.232 25.7366 191.196 25.7432H191.151H179.15C179.082 25.7434 179.016 25.7634 178.959 25.8006L175.233 28.4228L175.188 28.4802C175.157 28.5239 175.135 28.574 175.125 28.627C175.125 28.627 175.125 28.627 175.125 28.6716V40.615C175.125 40.6533 175.125 40.6788 175.163 40.7107C175.201 40.7426 175.163 40.7809 175.163 40.8064C175.192 40.846 175.229 40.8786 175.272 40.9018C175.315 40.925 175.363 40.9382 175.412 40.9404H187.355C187.426 40.9388 187.495 40.9166 187.553 40.8766L191.279 38.2608L191.311 38.2289C191.362 38.1703 191.391 38.096 191.394 38.0183L191.432 25.9601ZM187.706 37.5654V28.7482L188.905 27.9124L190.762 26.6364V37.5973L187.706 37.5654ZM175.763 28.9141H178.819V37.7249L175.763 39.8685V28.9141ZM179.278 38.2353H187.055V40.1493H176.49L179.278 38.2353ZM179.508 37.5654V28.9141H187.055V37.5654H179.508ZM190.054 26.2919L189.02 27.0192L187.285 28.2378H179.488V26.2919H190.054ZM178.838 26.6045V28.2378H176.509L178.838 26.6045ZM187.725 38.2353H190.054L187.725 39.8685V38.2353Z" fill="#12D96A"/>
<path d="M172.483 115.784C164.113 104.396 153.605 97.9203 149.011 101.276L127.957 116.754C123.364 120.129 126.426 132.098 134.797 143.486C143.167 154.875 153.681 161.35 158.275 158.001L179.329 142.523C183.923 139.148 180.86 127.179 172.483 115.784Z" fill="#12D96A"/>
<path opacity="0.4" d="M179.334 142.51C183.927 139.133 180.863 127.162 172.49 115.772C164.117 104.382 153.606 97.886 149.012 101.263C144.419 104.64 147.483 116.611 155.856 128.001C164.229 139.391 174.74 145.887 179.334 142.51Z" fill="white"/>
<path d="M147.378 134.261C143.193 128.563 137.936 125.329 135.639 127.007L108.568 146.899C106.272 148.59 107.803 154.555 111.988 160.297C116.173 166.039 121.431 169.229 123.727 167.552L150.798 147.652C153.069 145.942 151.538 139.958 147.378 134.261Z" fill="#12D96A"/>
<path opacity="0.3" d="M150.766 147.627L143.486 152.98C137.011 147.276 131.842 140.243 128.334 132.359L135.613 127.007C137.91 125.316 143.167 128.563 147.352 134.261C151.538 139.958 153.063 145.936 150.766 147.627Z" fill="black"/>
<path opacity="0.3" d="M150.774 147.613C153.071 145.925 151.539 139.939 147.353 134.244C143.166 128.549 137.91 125.301 135.614 126.989C133.317 128.678 134.849 134.663 139.035 140.358C143.222 146.053 148.478 149.301 150.774 147.613Z" fill="white"/>
<path opacity="0.3" d="M123.702 167.526C121.405 169.21 116.148 165.963 111.963 160.272C107.777 154.581 106.221 148.59 108.543 146.874C110.865 145.158 116.097 148.437 120.282 154.128C124.467 159.819 125.999 165.835 123.702 167.526Z" fill="black"/>
<path opacity="0.3" d="M158.282 157.985C162.876 154.608 159.812 142.637 151.439 131.247C143.066 119.857 132.554 113.36 127.961 116.737C123.367 120.114 126.431 132.085 134.804 143.475C143.177 154.865 153.689 161.361 158.282 157.985Z" fill="black"/>
<path d="M190.003 102.91C175.546 83.24 157.401 72.024 149.464 77.8553L137.808 86.4364C129.878 92.2613 135.167 112.933 149.617 132.602C164.068 152.272 182.213 163.488 190.124 157.656L201.799 149.075C209.749 143.244 204.46 122.579 190.003 102.91Z" fill="#12D96A"/>
<path opacity="0.3" d="M190.151 157.636C198.084 151.805 192.795 131.135 178.338 111.469C163.881 91.8035 145.732 80.5882 137.799 86.4192C129.867 92.2503 135.156 112.92 149.613 132.586C164.069 152.251 182.219 163.467 190.151 157.636Z" fill="black"/>
<path opacity="0.4" d="M201.818 149.06C209.75 143.229 204.461 122.559 190.005 102.893C175.548 83.2273 157.398 72.012 149.466 77.8431C141.534 83.6741 146.823 104.343 161.279 124.009C175.736 143.675 193.886 154.891 201.818 149.06Z" fill="white"/>
<path d="M207.35 90.1429C198.979 78.7546 188.465 72.2789 183.872 75.6348L162.818 91.1063C158.224 94.4813 161.286 106.457 169.657 117.845C178.028 129.233 188.542 135.709 193.135 132.353L214.189 116.881C218.834 113.506 215.746 101.531 207.35 90.1429Z" fill="#12D96A"/>
<path opacity="0.3" d="M193.163 132.344C197.757 128.967 194.693 116.996 186.32 105.606C177.947 94.2162 167.436 87.72 162.842 91.0968C158.248 94.4735 161.312 106.444 169.685 117.835C178.058 129.225 188.57 135.721 193.163 132.344Z" fill="black"/>
<path opacity="0.4" d="M214.217 116.865C218.811 113.488 215.747 101.517 207.374 90.1268C199.001 78.7367 188.489 72.2405 183.896 75.6173C179.302 78.994 182.366 90.965 190.739 102.355C199.112 113.745 209.624 120.241 214.217 116.865Z" fill="white"/>
<path d="M74.6013 78.4739C74.6013 78.4739 65.9883 93.569 65.3503 97.1864C64.7123 100.804 72.6873 123.931 72.6873 123.931C72.6873 123.931 70.9328 130.024 72.8468 131.045C74.7608 132.066 78.1039 134.139 78.5888 132.385C79.0737 130.63 78.5888 124.844 78.5888 124.844L77.1533 123.612C77.1533 123.612 72.0493 99.4513 72.0493 98.6092C72.0493 97.767 81.3067 83.5205 81.3067 83.5205L74.6013 78.4739Z" fill="#E4897B"/>
<path d="M79.884 68.2661C75.418 70.212 64.0807 88.9437 64.1892 96.9761C64.2976 105.009 70.8627 118.477 70.8627 118.477L75.871 117.532C75.871 117.532 74.008 98.5392 74.646 96.0638C75.284 93.5883 82.5381 83.61 82.5381 83.61L79.884 68.2661Z" fill="#12D96A"/>
<path opacity="0.2" d="M74.6459 96.0636C74.0462 98.5391 75.8837 117.513 75.8837 117.513L70.8754 118.457C70.8754 118.457 64.3103 104.996 64.2019 96.9568C64.0934 88.918 75.4179 70.1927 79.8967 68.2468L82.0468 80.758L82.538 83.6099C82.538 83.6099 78.6271 88.9627 76.2984 92.7971C75.6165 93.8145 75.0616 94.9115 74.6459 96.0636Z" fill="white"/>
<path opacity="0.2" d="M82.5253 83.6099C82.5253 83.6099 78.6143 88.9627 76.2856 92.7971C75.8901 86.9913 78.7802 80.2221 79.8839 77.8679C80.1391 77.3256 80.2986 77.0129 80.2986 77.0129L82.034 80.758L82.5253 83.6099Z" fill="black"/>
<path d="M106.348 225.852L111.529 226.395L111.79 223.396L112.492 215.236L107.324 214.687L106.54 223.702L106.348 225.852Z" fill="#E4897B"/>
<path d="M80.5283 225.195H85.5366L85.5877 224.059L85.594 223.919L85.8492 216.645V216.499L85.9513 213.711H80.9366L80.5283 225.195Z" fill="#E4897B"/>
<path opacity="0.2" d="M107.324 214.687L106.54 223.702L111.79 223.396L112.492 215.236L107.324 214.687Z" fill="black"/>
<path opacity="0.2" d="M80.5602 224.557H80.5666L85.5876 223.919H85.594L85.8492 216.901L80.8154 217.303L80.5666 224.34L80.5602 224.557Z" fill="black"/>
<path d="M86.232 224.895H80.1391C80.0394 224.895 79.9428 224.93 79.8651 224.992C79.7875 225.055 79.7334 225.142 79.7117 225.24L78.7228 229.706C78.6832 229.898 78.7214 230.097 78.8291 230.261C78.9367 230.425 79.105 230.54 79.297 230.58C79.35 230.586 79.4035 230.586 79.4565 230.58C81.4279 230.548 82.8634 230.426 85.3388 230.426C86.8637 230.426 91.4636 230.586 93.569 230.586C95.6744 230.586 95.9488 228.506 95.0875 228.315C91.2212 227.473 88.3119 226.305 87.0742 225.195C86.8426 224.99 86.5409 224.883 86.232 224.895Z" fill="#263238"/>
<path d="M112.071 224.735H105.978C105.878 224.736 105.782 224.77 105.704 224.833C105.626 224.895 105.572 224.982 105.551 225.08L104.562 229.546C104.522 229.738 104.56 229.938 104.668 230.102C104.776 230.266 104.944 230.38 105.136 230.42C105.189 230.426 105.242 230.426 105.295 230.42C107.267 230.388 108.702 230.267 111.178 230.267C112.703 230.267 117.303 230.426 119.408 230.426C121.513 230.426 121.788 228.346 120.926 228.155C117.06 227.313 114.151 226.145 112.913 225.035C112.682 224.83 112.38 224.723 112.071 224.735Z" fill="#263238"/>
<path d="M112.971 222.662H105.615C105.615 222.662 106.214 159.341 98.2584 137.955C97.6969 145.024 97.0653 152.361 96.4465 158.473C96.0573 162.256 95.6745 165.491 95.3108 167.979C92.9949 183.929 87.1508 223.3 87.1508 223.3H79.884C79.884 223.3 80.7453 185.575 81.6066 169.899C82.5572 152.865 82.94 115.478 83.0038 112.288H109.621C112.154 125.686 118.668 179.278 112.971 222.662Z" fill="#263238"/>
<path d="M99.9554 56.042C99.8916 56.2908 99.8214 56.5268 99.7385 56.7565C99.2656 58.0844 98.4 59.237 97.2567 60.0614C96.9641 60.2663 96.6571 60.4496 96.338 60.61C95.1268 61.2546 93.7385 61.4869 92.3834 61.2716C91.0284 61.0563 89.7805 60.4052 88.8287 59.417C86.315 56.865 86.3852 53.9493 86.0981 48.9857C86.0148 47.8287 86.2286 46.6697 86.7191 45.6185C87.2096 44.5674 87.9606 43.659 88.9008 42.9796C89.8409 42.3002 90.9391 41.8723 92.0911 41.7365C93.2431 41.6007 94.4107 41.7616 95.483 42.2037C100.364 44.2007 101.034 51.576 99.9554 56.042Z" fill="#E4897B"/>
<path opacity="0.2" d="M97.2566 60.0612C96.9641 60.2661 96.657 60.4495 96.3379 60.6099C95.5063 61.0505 94.5869 61.3004 93.6467 61.3412C92.7064 61.382 91.7689 61.2128 90.9022 60.846C91.1246 60.2509 91.4226 59.687 91.789 59.168C93.6595 58.9318 95.5585 59.242 97.2566 60.0612Z" fill="black"/>
<path d="M87.2784 66.4924C89.7219 68.7126 95.7064 67.896 95.7064 67.896C95.7064 67.896 99.4387 66.8688 98.6603 65.7013C96.4592 65.3376 95.3874 64.3104 94.9471 62.9962C94.7082 62.1811 94.6345 61.3264 94.7302 60.4824C94.7621 60.0167 94.8323 59.5446 94.9089 59.0788L87.5144 53.592C88.4842 57.2159 89.6709 63.8702 87.2784 66.4924Z" fill="#E4897B"/>
<path d="M94.0858 40.0728C94.0858 40.0728 97.3077 38.7203 99.5471 40.832C101.461 42.6121 100.185 45.3555 101.353 47.6331C102.52 49.9108 98.3668 51.4037 98.3668 51.4037C98.3668 51.4037 97.2822 53.7452 95.3874 53.5984C95.3874 53.5984 93.8434 55.4741 94.1114 57.4264C94.3793 59.3787 91.5594 60.8908 87.7952 60.8397C84.031 60.7887 85.5239 58.4281 85.5239 58.4281C84.4291 57.1628 83.5438 55.7304 82.9017 54.1854C82.1354 52.3036 81.7682 50.2831 81.8235 48.252C81.7879 47.1974 81.9631 46.1464 82.3389 45.1604C82.7147 44.1744 83.2834 43.2734 84.0118 42.51C86.5064 39.6517 92.51 38.2226 94.0858 40.0728Z" fill="#263238"/>
<path d="M94.424 51.8822C94.5202 52.349 94.7181 52.7889 95.0037 53.1704C95.2894 53.552 95.6556 53.8659 96.0764 54.0897C97.0845 54.5171 97.748 53.0944 97.6076 51.6015C97.4673 50.2808 96.7846 48.4115 95.6936 48.6667C94.6026 48.9219 94.0859 50.5488 94.424 51.8822Z" fill="#E4897B"/>
<path opacity="0.2" d="M98.252 137.904C97.6906 144.973 97.0589 152.323 96.4401 158.435C95.5341 149.611 94.424 143.32 94.424 143.32C94.424 143.32 93.3841 142.465 90.5258 137.904C87.6676 133.342 90.5258 124.825 90.5258 124.825C90.4429 132.736 98.252 137.904 98.252 137.904Z" fill="black"/>
<path d="M113.794 220.569L113.436 222.643H104.747V220.729L113.794 220.569Z" fill="#12D96A"/>
<path d="M87.9865 221.367L87.1507 223.281H79.8584L79.3799 221.367H87.9865Z" fill="#12D96A"/>
<path d="M82.7613 116.633V120.544L110.655 118.591V115.121L82.7613 116.633Z" fill="#12D96A"/>
<path opacity="0.2" d="M82.7613 116.633V120.544L110.655 118.591V115.121L82.7613 116.633Z" fill="white"/>
<path d="M112.014 113.405C112.039 113.756 111.993 114.108 111.88 114.442C111.767 114.775 111.588 115.082 111.355 115.345C111.121 115.609 110.837 115.823 110.52 115.975C110.203 116.127 109.858 116.214 109.506 116.231L83.3483 117.507C83.1484 117.518 82.9484 117.489 82.7603 117.42C82.5723 117.351 82.4001 117.245 82.2545 117.108C82.1088 116.971 81.9926 116.805 81.913 116.621C81.8335 116.438 81.7921 116.24 81.7916 116.039C81.6257 100.089 76.1708 71.1307 79.8776 68.2469C83.7056 65.2674 102.635 63.7043 102.635 63.7043C103.52 65.7885 104.293 67.9182 104.951 70.0843C105.034 70.3587 105.123 70.633 105.2 70.9137C106.284 74.4993 107.197 78.3656 107.981 82.2829C108.039 82.5445 108.09 82.8124 108.141 83.074C110.004 93.1028 111.297 103.229 112.014 113.405Z" fill="#12D96A"/>
<path opacity="0.4" d="M112.014 113.405C112.039 113.756 111.993 114.108 111.88 114.442C111.767 114.775 111.588 115.082 111.355 115.345C111.121 115.609 110.837 115.823 110.52 115.975C110.203 116.127 109.858 116.214 109.506 116.231L83.3483 117.507C83.1484 117.518 82.9484 117.489 82.7603 117.42C82.5723 117.351 82.4001 117.245 82.2545 117.108C82.1088 116.971 81.9926 116.805 81.913 116.621C81.8335 116.438 81.7921 116.24 81.7916 116.039C81.6257 100.089 76.1708 71.1307 79.8776 68.2469C83.7056 65.2674 102.635 63.7043 102.635 63.7043C103.52 65.7885 104.293 67.9182 104.951 70.0843C105.034 70.3587 105.123 70.633 105.2 70.9137C106.284 74.4993 107.197 78.3656 107.981 82.2829C108.039 82.5445 108.09 82.8124 108.141 83.074C110.004 93.1028 111.297 103.229 112.014 113.405Z" fill="white"/>
<path d="M97.614 64.2146C97.614 64.2146 94.7239 61.9497 89.32 62.0645C83.9161 62.1794 83.3675 64.2146 83.3675 64.2146C83.3675 64.2146 77.4085 67.1877 82.0915 72.0747C86.7744 76.9618 95.9807 64.5719 95.9807 64.5719L97.614 64.2146Z" fill="#12D96A"/>
<path opacity="0.2" d="M97.614 64.2146C97.614 64.2146 94.7239 61.9497 89.32 62.0645C83.9161 62.1794 83.3675 64.2146 83.3675 64.2146C83.3675 64.2146 77.4085 67.1877 82.0915 72.0747C86.7744 76.9618 95.9807 64.5719 95.9807 64.5719L97.614 64.2146Z" fill="white"/>
<path opacity="0.2" d="M107.988 82.302C105.538 79.0634 104.032 75.2103 103.637 71.1689L105.206 70.9329C106.291 74.5057 107.184 78.3719 107.988 82.302Z" fill="black"/>
<path d="M106.055 63.8C106.055 63.8 124.946 59.972 127.6 58.9448C130.254 57.9176 144.296 44.5068 144.296 44.5068L147.378 46.8292C147.378 46.8292 136.857 60.4887 131.594 64.438C126.33 68.3872 107.905 74.3206 107.905 74.3206L106.055 63.8Z" fill="#E4897B"/>
<path d="M144.303 44.5069C145.815 42.7779 151.321 39.0456 152.131 38.7266C152.941 38.4076 154.115 43.2883 153.873 43.9263C153.63 44.5643 150.932 45.9169 149.573 46.0764C148.214 46.2359 146.746 47.6331 146.746 47.6331L144.303 44.5069Z" fill="#E4897B"/>
<path d="M102.641 63.7044C102.641 63.7044 102.386 72.6364 106.833 77.0131C106.833 77.0131 122.783 72.3365 131.351 66.5371C136.63 62.845 140.788 57.7671 143.365 51.8631C143.365 51.8631 141.878 49.0623 139.894 48.6731C139.894 48.6731 128.449 57.8858 122.139 59.1363C115.829 60.3868 102.08 63.7044 102.08 63.7044" fill="#12D96A"/>
<path opacity="0.2" d="M102.641 63.7044C102.641 63.7044 102.386 72.6364 106.833 77.0131C106.833 77.0131 122.783 72.3365 131.351 66.5371C136.63 62.845 140.788 57.7671 143.365 51.8631C143.365 51.8631 141.878 49.0623 139.894 48.6731C139.894 48.6731 128.449 57.8858 122.139 59.1363C115.829 60.3868 102.08 63.7044 102.08 63.7044" fill="white"/>
<path d="M139.645 48.8388L140.813 47.1609L144.603 51.4546L143.129 52.418L139.645 48.8388Z" fill="#12D96A"/>
<path d="M70.5628 117.832L75.7497 116.212L76.2474 117.832L70.5628 119.663V117.832Z" fill="#12D96A"/>
</svg>
