<svg width="652" height="681" viewBox="0 0 652 681" fill="none" xmlns="http://www.w3.org/2000/svg">
<path d="M104.155 158.453C69.8355 202.532 48.7091 255.434 43.2243 311.028L1 304.867C7.60091 241.485 31.9983 181.263 71.3739 131.158L104.155 158.453Z" stroke="#808080" stroke-width="0.263732" stroke-linecap="round" stroke-linejoin="round"/>
<path d="M473.584 652.083C414.292 677.728 348.917 685.937 285.126 675.746C221.334 665.556 161.77 637.388 113.418 594.547L141.725 562.62C184.013 600.056 236.093 624.667 291.864 633.571C347.636 642.475 404.79 635.302 456.632 612.894L473.584 652.083Z" stroke="#808080" stroke-width="0.263732" stroke-linecap="round" stroke-linejoin="round"/>
<path d="M338.57 340.504V1.00026C249.526 0.888954 164.026 35.8759 100.603 98.377L129.629 129.742L141.883 142.94L163.31 166.008L316.468 330.836L325.462 340.571L326.653 341.853L330.723 346.215L332.117 347.721L334.365 349.969L337.76 353.634L332.005 355.32L238.607 566.779C215.23 556.454 193.604 542.55 174.506 525.567L323.124 357.906L309.184 361.976L104.875 421.647L74.6115 430.483L57.3216 435.52L16.2889 447.504C35.164 504.21 68.6683 554.932 113.418 594.547L141.703 562.62C183.991 600.056 236.07 624.667 291.842 633.571C347.613 642.474 404.767 635.302 456.609 612.893L449.527 596.368L437.026 567.476C414.196 577.396 389.988 583.78 365.235 586.408L338.57 340.504ZM338.57 340.504L311.994 94.5998C268.809 99.1911 227.614 115.15 192.606 140.849L338.57 340.504Z" stroke="#808080" stroke-width="0.263732" stroke-linecap="round" stroke-linejoin="round"/>
<path d="M117.915 170.01C85.7219 211.503 65.9793 261.289 60.9864 313.568L43.2243 311.028C48.7174 255.45 69.8433 202.565 104.155 158.499L117.915 170.01Z" stroke="#808080" stroke-width="0.263732" stroke-linecap="round" stroke-linejoin="round"/>
<path d="M323.146 357.906L328.16 352.24L331.555 348.418L332.229 347.654L338.57 340.504H325.574H322.067H247.084H91.2494" stroke="#808080" stroke-width="0.263732" stroke-linecap="round" stroke-linejoin="round"/>
<path d="M113.396 594.547L75.5109 637.288" stroke="#808080" stroke-width="0.263732" stroke-linecap="round" stroke-linejoin="round"/>
<path d="M141.703 562.619L153.642 549.152L174.529 525.566" stroke="#808080" stroke-width="0.263732" stroke-linecap="round" stroke-linejoin="round"/>
<path d="M635.354 340.503C635.372 398.391 618.459 455.02 586.7 503.418C554.941 551.816 509.721 589.87 456.609 612.893L449.437 596.368C493.616 577.227 532.086 546.972 561.099 508.548C590.112 470.124 608.68 424.841 614.994 377.109C621.309 329.378 615.154 280.825 597.13 236.178C579.106 191.532 549.827 152.314 512.144 122.344L523.386 108.247C558.341 136.024 586.568 171.34 605.956 211.558C625.345 251.776 635.395 295.856 635.354 340.503Z" stroke="#808080" stroke-width="0.263732" stroke-linecap="round" stroke-linejoin="round"/>
<path d="M512.144 122.345L492.538 147.077C476.034 133.89 457.897 122.887 438.577 114.341L451.303 85.5166C473.074 95.1424 493.52 107.519 512.144 122.345Z" stroke="#808080" stroke-width="0.263732" stroke-linecap="round" stroke-linejoin="round"/>
<path d="M523.363 108.247L583.642 32.4771H651.093" stroke="#808080" stroke-width="0.263732" stroke-linecap="round" stroke-linejoin="round"/>
<path d="M492.538 146.964L338.57 340.504" stroke="#808080" stroke-width="0.263732" stroke-linecap="round" stroke-linejoin="round"/>
<path d="M316.986 140.804L311.994 94.5996C268.809 99.1909 227.614 115.149 192.606 140.849L220.036 178.374C248.47 157.513 281.92 144.551 316.986 140.804Z" stroke="#808080" stroke-width="0.263732" stroke-linecap="round" stroke-linejoin="round"/>
<path d="M360.941 547.534L365.235 586.408C389.988 583.78 414.196 577.396 437.026 567.477L421.287 531.053C402.155 539.661 381.793 545.222 360.941 547.534Z" stroke="#808080" stroke-width="0.263732" stroke-linecap="round" stroke-linejoin="round"/>
<path d="M365.236 586.408C322.073 591.038 278.45 584.271 238.72 566.779L332.117 355.32L323.236 357.906L174.619 525.567C148.434 502.373 127.476 473.881 113.135 441.976C98.793 410.071 91.3945 375.484 91.4293 340.504C91.4293 332.949 91.7666 325.462 92.4636 318.02C96.6249 271.525 113.92 227.172 142.332 190.133C148.873 181.594 155.963 173.49 163.557 165.873C172.626 156.754 182.399 148.364 192.786 140.781L338.75 340.436L365.236 586.408Z" stroke="#808080" stroke-width="0.263732" stroke-linecap="round" stroke-linejoin="round"/>
<path d="M457.733 70.6992L451.236 85.4035" stroke="#808080" stroke-width="0.263732" stroke-linecap="round" stroke-linejoin="round"/>
<path d="M438.51 114.228L338.57 340.504" stroke="#808080" stroke-width="0.263732" stroke-linecap="round" stroke-linejoin="round"/>
<path d="M338.57 340.504L68.7657 221.34" stroke="#808080" stroke-width="0.263732" stroke-linecap="round" stroke-linejoin="round"/>
<path d="M92.666 367.08L61.3687 370.475C60.3029 360.52 59.77 350.515 59.7723 340.504H91.2495C91.2439 349.381 91.7167 358.253 92.666 367.08Z" stroke="#808080" stroke-width="0.263732" stroke-linecap="round" stroke-linejoin="round"/>
<path d="M338.57 340.504L100.468 514.573" stroke="#808080" stroke-width="0.263732" stroke-linecap="round" stroke-linejoin="round"/>
<path d="M219.406 610.308L225.904 595.603L238.63 566.779" stroke="#808080" stroke-width="0.263732" stroke-linecap="round" stroke-linejoin="round"/>
<path d="M512.638 578.606L503.105 565.588L484.534 540.159" stroke="#808080" stroke-width="0.263732" stroke-linecap="round" stroke-linejoin="round"/>
<path d="M338.57 340.504L608.374 459.667" stroke="#808080" stroke-width="0.263732" stroke-linecap="round" stroke-linejoin="round"/>
<path d="M338.57 340.504L631.802 308.802" stroke="#808080" stroke-width="0.263732" stroke-linecap="round" stroke-linejoin="round"/>
<path d="M538.225 194.54L338.57 340.504" stroke="#808080" stroke-width="0.263732" stroke-linecap="round" stroke-linejoin="round"/>
<path d="M338.57 169.695C305.249 192.831 247.488 214.865 171.134 265.948C171.134 265.948 175.923 438.555 338.57 532.897C501.217 438.555 505.983 266.06 505.983 266.06C429.651 214.865 372.16 192.831 338.57 169.695Z" fill="url(#paint0_linear_269_1084)" stroke="url(#paint1_linear_269_1084)" stroke-width="0.263732" stroke-linecap="round" stroke-linejoin="round"/>
<path d="M505.983 266.06C429.539 214.977 372.16 192.943 338.57 169.808V532.896C501.217 438.555 505.983 266.06 505.983 266.06Z" fill="#12D96A" stroke="url(#paint2_linear_269_1084)" stroke-width="0.263732" stroke-linecap="round" stroke-linejoin="round"/>
<path d="M401.996 343.719H277.212C275.866 343.733 274.529 343.483 273.28 342.981C272.03 342.48 270.892 341.737 269.929 340.795C268.967 339.854 268.199 338.732 267.67 337.493C267.141 336.255 266.862 334.925 266.847 333.578V276.043C266.847 236.764 299.471 204.792 339.604 204.792C379.738 204.792 412.451 236.831 412.451 276.043V333.511C412.443 334.87 412.164 336.214 411.633 337.464C411.101 338.715 410.327 339.848 409.355 340.797C408.382 341.747 407.231 342.494 405.968 342.995C404.705 343.497 403.355 343.742 401.996 343.719ZM287.577 323.483H391.631V276.043C391.234 262.509 385.578 249.663 375.864 240.231C366.15 230.799 353.144 225.523 339.604 225.523C326.065 225.523 313.058 230.799 303.344 240.231C293.631 249.663 287.975 262.509 287.577 276.043V323.483Z" fill="white" stroke="url(#paint3_linear_269_1084)" stroke-width="0.263732" stroke-linecap="round" stroke-linejoin="round"/>
<path d="M418.005 315.997H259.135V447.414H418.005V315.997Z" fill="white" stroke="url(#paint4_linear_269_1084)" stroke-width="0.263732" stroke-linecap="round" stroke-linejoin="round"/>
<path d="M355.095 370.565C354.934 366.084 353.04 361.841 349.813 358.728C346.586 355.615 342.278 353.876 337.794 353.876C333.311 353.876 329.002 355.615 325.775 358.728C322.548 361.841 320.655 366.084 320.493 370.565C320.497 373.632 321.336 376.64 322.92 379.266C324.505 381.893 326.775 384.038 329.487 385.471L326.586 415.33H348.822L345.922 385.471C348.667 384.062 350.974 381.927 352.591 379.299C354.208 376.671 355.074 373.65 355.095 370.565Z" fill="url(#paint5_linear_269_1084)" stroke="url(#paint6_linear_269_1084)" stroke-width="0.263732" stroke-linecap="round" stroke-linejoin="round"/>
<defs>
<linearGradient id="paint0_linear_269_1084" x1="171.134" y1="351.296" x2="505.983" y2="351.296" gradientUnits="userSpaceOnUse">
<stop stop-color="#12D96A"/>
<stop offset="1" stop-color="#0A7338" stop-opacity="0.6"/>
</linearGradient>
<linearGradient id="paint1_linear_269_1084" x1="171.134" y1="351.296" x2="505.983" y2="351.296" gradientUnits="userSpaceOnUse">
<stop stop-color="#12D96A"/>
<stop offset="1" stop-color="#0A7338" stop-opacity="0.6"/>
</linearGradient>
<linearGradient id="paint2_linear_269_1084" x1="338.57" y1="351.352" x2="505.983" y2="351.352" gradientUnits="userSpaceOnUse">
<stop stop-color="#12D96A"/>
<stop offset="1" stop-color="#0A7338" stop-opacity="0.6"/>
</linearGradient>
<linearGradient id="paint3_linear_269_1084" x1="266.847" y1="274.256" x2="412.451" y2="274.256" gradientUnits="userSpaceOnUse">
<stop stop-color="#12D96A"/>
<stop offset="1" stop-color="#0A7338" stop-opacity="0.6"/>
</linearGradient>
<linearGradient id="paint4_linear_269_1084" x1="259.135" y1="381.705" x2="418.005" y2="381.705" gradientUnits="userSpaceOnUse">
<stop stop-color="#12D96A"/>
<stop offset="1" stop-color="#0A7338" stop-opacity="0.6"/>
</linearGradient>
<linearGradient id="paint5_linear_269_1084" x1="320.493" y1="384.603" x2="355.095" y2="384.603" gradientUnits="userSpaceOnUse">
<stop stop-color="#12D96A"/>
<stop offset="1" stop-color="#0A7338" stop-opacity="0.6"/>
</linearGradient>
<linearGradient id="paint6_linear_269_1084" x1="320.493" y1="384.603" x2="355.095" y2="384.603" gradientUnits="userSpaceOnUse">
<stop stop-color="#12D96A"/>
<stop offset="1" stop-color="#0A7338" stop-opacity="0.6"/>
</linearGradient>
</defs>
</svg>
